<svg width="38" height="38" viewBox="0 0 38 38" fill="none" xmlns="http://www.w3.org/2000/svg">
<mask id="mask0" mask-type="alpha" maskUnits="userSpaceOnUse" x="0" y="0" width="38" height="38">
<rect x="0.5" y="0.5" width="37" height="37" rx="9.5" fill="#C4C4C4" stroke="black"/>
</mask>
<g mask="url(#mask0)">
<rect x="6.83337" y="6.83398" width="24.3333" height="23.0667" rx="4.5" stroke="#228596"/>
<path d="M9.3667 12.8672C9.3667 10.9342 10.9337 9.36719 12.8667 9.36719H25.1334C27.0664 9.36719 28.6334 10.9342 28.6334 12.8672V17.5339C28.6334 19.4668 27.0664 21.0339 25.1334 21.0339H12.8667C10.9337 21.0339 9.3667 19.4669 9.3667 17.5339V12.8672Z" stroke="#228596"/>
<path d="M9.3667 29.6348H13.4334V32.3348C13.4334 32.39 13.3886 32.4348 13.3334 32.4348H9.4667C9.41147 32.4348 9.3667 32.39 9.3667 32.3348V29.6348Z" stroke="#228596"/>
<path d="M24.5668 29.6348H28.6334V32.3348C28.6334 32.39 28.5887 32.4348 28.5334 32.4348H24.6668C24.6115 32.4348 24.5668 32.39 24.5668 32.3348V29.6348Z" stroke="#228596"/>
<circle cx="11.4" cy="25.3341" r="2.03333" stroke="#FCAB2D"/>
<circle cx="26.6001" cy="25.3341" r="2.03333" stroke="#FCAB2D"/>
<path d="M33.25 12.3496V8.87844C33.25 6.54864 31.4563 4.61163 29.1333 4.43294V4.43294" stroke="#FCAB2D" stroke-linecap="round"/>
<path d="M6.65002 31.0332V31.0332C5.33795 30.6583 4.43336 29.4591 4.43336 28.0945V20.2665" stroke="#FCAB2D" stroke-linecap="round"/>
<path d="M15.8334 18.6836H13.4334C12.6602 18.6836 12.0334 18.0568 12.0334 17.2836V14.5669" stroke="#FCAB2D" stroke-linecap="round"/>
</g>
</svg>
