<svg width="38" height="38" viewBox="0 0 38 38" fill="none" xmlns="http://www.w3.org/2000/svg">
<mask id="mask0" mask-type="alpha" maskUnits="userSpaceOnUse" x="0" y="0" width="38" height="38">
<rect x="0.5" y="0.5" width="37" height="37" rx="9.5" fill="#C4C4C4" stroke="black"/>
</mask>
<g mask="url(#mask0)">
<path d="M8.55683 13.5261C9.18478 11.7147 10.8914 10.5 12.8086 10.5H24.7646C26.5822 10.5 28.2213 11.5934 28.9194 13.2716L31.1548 18.6451C31.3827 19.1929 31.5 19.7803 31.5 20.3735V27C31.5 28.3807 30.3807 29.5 29 29.5H9C7.61929 29.5 6.5 28.3807 6.5 27V20.2171C6.5 19.7154 6.5839 19.2172 6.74824 18.7431L8.55683 13.5261Z" stroke="#228596"/>
<path d="M11.794 13.959C11.9377 13.5638 12.3133 13.3008 12.7338 13.3008H24.6894C25.0816 13.3008 25.4375 13.53 25.5998 13.887L27.2147 17.4398C27.8166 18.764 26.8486 20.2674 25.394 20.2674H12.3554C10.9675 20.2674 10.0015 18.8883 10.4758 17.584L11.794 13.959Z" stroke="#228596"/>
<path d="M8.5 29.5H12.5V32.15C12.5 32.2052 12.4552 32.25 12.4 32.25H8.6C8.54477 32.25 8.5 32.2052 8.5 32.15V29.5Z" stroke="#228596"/>
<path d="M25.5 29.5H29.5V32.15C29.5 32.2052 29.4552 32.25 29.4 32.25H25.6C25.5448 32.25 25.5 32.2052 25.5 32.15V29.5Z" stroke="#228596"/>
<circle cx="10.5333" cy="25.3341" r="2.03333" stroke="#FCAB2D"/>
<circle cx="27.5333" cy="25.3341" r="2.03333" stroke="#FCAB2D"/>
<path d="M32.3 15.5176L30.604 11.1832C29.908 9.40461 28.1933 8.23424 26.2834 8.23424V8.23424" stroke="#FCAB2D" stroke-linecap="round"/>
<path d="M4.43329 20.2668V28.307C4.43329 29.2336 4.83816 30.1138 5.54163 30.7168V30.7168" stroke="#FCAB2D" stroke-linecap="round"/>
<path d="M15.2 18.0508H12.5636C12.2978 18.0508 12.106 17.7964 12.179 17.5409L12.6666 15.8341" stroke="#FCAB2D" stroke-linecap="round"/>
</g>
</svg>
