<svg width="60" height="60" viewBox="0 0 60 60" fill="none" xmlns="http://www.w3.org/2000/svg">
<mask id="mask0" mask-type="alpha" maskUnits="userSpaceOnUse" x="0" y="0" width="60" height="60">
<rect x="1" y="1" width="58" height="58" rx="9" fill="#C4C4C4" stroke="black" stroke-width="2"/>
</mask>
<g mask="url(#mask0)">
<path d="M17.3899 16.515C17.4712 16.3397 17.5485 16.177 17.6204 16.0284L27 23.0204V29.8618C26.7681 29.956 26.4729 30.07 26.1278 30.1908C25.2205 30.5086 23.9881 30.8669 22.6622 31.0457C19.9577 31.4105 17.2304 31.0008 15.7417 28.5095C15.1484 27.5166 14.9361 26.2202 15.0162 24.7382C15.096 23.2639 15.4606 21.6935 15.9276 20.2332C16.3928 18.7781 16.9487 17.4657 17.3899 16.515Z" stroke="#228596" stroke-width="2"/>
<path d="M42.6101 16.515C42.5288 16.3397 42.4515 16.177 42.3796 16.0284L33 23.0204V29.8618C33.2319 29.956 33.5271 30.07 33.8722 30.1908C34.7795 30.5086 36.0119 30.8669 37.3378 31.0457C40.0423 31.4105 42.7696 31.0008 44.2583 28.5095C44.8516 27.5166 45.0639 26.2202 44.9838 24.7382C44.904 23.2639 44.5394 21.6935 44.0724 20.2332C43.6072 18.7781 43.0513 17.4657 42.6101 16.515Z" stroke="#228596" stroke-width="2"/>
<path d="M38.5 27.5V27.5C40.4354 27.5 41.7751 25.5669 41.0955 23.7547L41 23.5" stroke="#FCAB2D" stroke-width="2" stroke-linecap="round"/>
<path d="M35.5 54.5V54.5C36.1228 52.0087 37.9753 50.0082 40.4115 49.1962L41 49" stroke="#FCAB2D" stroke-width="2" stroke-linecap="round"/>
<path d="M12.5 29.5C12.5 29.5 11.5 28 11.5 25C11.5 22 13 18.5 13 18.5" stroke="#FCAB2D" stroke-width="2" stroke-linecap="round"/>
<rect x="27" y="23.5186" width="6" height="6" stroke="#228596" stroke-width="2"/>
<path d="M18 16C18 16 17.4628 9.63587 20 6.99993" stroke="#228596" stroke-width="2" stroke-linecap="round"/>
<path d="M42.5 16C42.5 16 43.0372 9.63587 40.5 6.99993" stroke="#228596" stroke-width="2" stroke-linecap="round"/>
<path d="M44.7016 43.7857C44.6185 43.8059 44.5314 43.8273 44.4408 43.85C43.6134 44.0572 42.4779 44.3703 41.2476 44.7938C40.0201 45.2164 38.6802 45.7552 37.4513 46.4181C36.2323 47.0757 35.0641 47.8863 34.2339 48.8759C32.8291 50.5503 32.0276 52.4334 31.5766 53.8751C31.3745 54.5211 31.2401 55.087 31.153 55.5186H28.847C28.7599 55.087 28.6255 54.5211 28.4234 53.8751C27.9724 52.4334 27.1709 50.5503 25.7661 48.8759C24.9359 47.8863 23.7677 47.0757 22.5487 46.4181C21.3198 45.7552 19.9799 45.2164 18.7524 44.7938C17.5221 44.3703 16.3866 44.0572 15.5592 43.85C15.4686 43.8273 15.3815 43.8059 15.2984 43.7857L16.6805 39.6392C22.3403 40.533 26.0519 40.9997 29.8303 41.0048C33.6152 41.0098 37.4352 40.5516 43.3188 39.6373L44.7016 43.7857Z" stroke="#228596" stroke-width="2"/>
</g>
</svg>
