<svg width="37" height="52" viewBox="0 0 37 52" fill="none" xmlns="http://www.w3.org/2000/svg">
<path d="M7.38986 11.515C7.47121 11.3397 7.54849 11.177 7.62038 11.0284L17 18.0204V24.8618C16.7681 24.956 16.4729 25.07 16.1278 25.1908C15.2205 25.5086 13.9881 25.8669 12.6622 26.0457C9.95771 26.4105 7.23042 26.0008 5.74168 23.5095C5.14836 22.5166 4.93608 21.2202 5.01624 19.7382C5.09598 18.2639 5.46064 16.6935 5.92757 15.2332C6.39283 13.7781 6.94874 12.4657 7.38986 11.515Z" stroke="#228596" stroke-width="2"/>
<path d="M32.6101 11.515C32.5288 11.3397 32.4515 11.177 32.3796 11.0284L23 18.0204V24.8618C23.2319 24.956 23.5271 25.07 23.8722 25.1908C24.7795 25.5086 26.0119 25.8669 27.3378 26.0457C30.0423 26.4105 32.7696 26.0008 34.2583 23.5095C34.8516 22.5166 35.0639 21.2202 34.9838 19.7382C34.904 18.2639 34.5394 16.6935 34.0724 15.2332C33.6072 13.7781 33.0513 12.4657 32.6101 11.515Z" stroke="#228596" stroke-width="2"/>
<path d="M28.5 22.5V22.5C30.4354 22.5 31.7751 20.5669 31.0955 18.7547L31 18.5" stroke="#FCAB2D" stroke-width="2" stroke-linecap="round"/>
<path d="M25.5 49.5V49.5C26.1228 47.0087 27.9753 45.0082 30.4115 44.1962L31 44" stroke="#FCAB2D" stroke-width="2" stroke-linecap="round"/>
<path d="M2.5 24.5C2.5 24.5 1.5 23 1.5 20C1.5 17 3 13.5 3 13.5" stroke="#FCAB2D" stroke-width="2" stroke-linecap="round"/>
<rect x="17" y="18.5186" width="6" height="6" stroke="#228596" stroke-width="2"/>
<path d="M8 11C8 11 7.46277 4.63587 9.99998 1.99993" stroke="#228596" stroke-width="2" stroke-linecap="round"/>
<path d="M32.5 11C32.5 11 33.0372 4.63587 30.5 1.99993" stroke="#228596" stroke-width="2" stroke-linecap="round"/>
<path d="M34.7016 38.7857C34.6185 38.8059 34.5314 38.8273 34.4408 38.85C33.6134 39.0572 32.4779 39.3703 31.2476 39.7938C30.0201 40.2164 28.6802 40.7552 27.4513 41.4181C26.2323 42.0757 25.0641 42.8863 24.2339 43.8759C22.8291 45.5503 22.0276 47.4334 21.5766 48.8751C21.3745 49.5211 21.2401 50.087 21.153 50.5186H18.847C18.7599 50.087 18.6255 49.5211 18.4234 48.8751C17.9724 47.4334 17.1709 45.5503 15.7661 43.8759C14.9359 42.8863 13.7677 42.0757 12.5487 41.4181C11.3198 40.7552 9.97991 40.2164 8.75237 39.7938C7.52213 39.3703 6.38663 39.0572 5.55922 38.85C5.46856 38.8273 5.38152 38.8059 5.29838 38.7857L6.68054 34.6392C12.3403 35.533 16.0519 35.9997 19.8303 36.0048C23.6152 36.0098 27.4352 35.5516 33.3188 34.6373L34.7016 38.7857Z" stroke="#228596" stroke-width="2"/>
</svg>
