<svg width="16" height="16" viewBox="0 0 16 16" fill="none" xmlns="http://www.w3.org/2000/svg">
<mask id="mask0" mask-type="alpha" maskUnits="userSpaceOnUse" x="0" y="0" width="16" height="16">
<rect width="16" height="16" fill="#C4C4C4"/>
</mask>
<g mask="url(#mask0)">
<path d="M2.96828 13.2527C2.52196 12.8064 2.52196 12.0828 2.96828 11.6365L11.8576 2.74712C12.3039 2.3008 13.0276 2.3008 13.4739 2.74712C13.9202 3.19343 13.9202 3.91705 13.4739 4.36336L4.58452 13.2527C4.13821 13.699 3.41459 13.699 2.96828 13.2527Z" fill="white"/>
<path d="M13.4741 13.2529C13.0278 13.6992 12.3042 13.6992 11.8579 13.2529L2.96855 4.36357C2.52224 3.91726 2.52224 3.19364 2.96855 2.74733C3.41486 2.30101 4.13848 2.30101 4.58479 2.74733L13.4741 11.6367C13.9205 12.083 13.9205 12.8066 13.4741 13.2529Z" fill="white"/>
</g>
</svg>
