<svg width="60" height="60" viewBox="0 0 60 60" fill="none" xmlns="http://www.w3.org/2000/svg">
<mask id="mask0" mask-type="alpha" maskUnits="userSpaceOnUse" x="0" y="0" width="60" height="60">
<rect width="60" height="60" rx="10" transform="matrix(-1 0 0 1 60 0)" fill="#C4C4C4"/>
</mask>
<g mask="url(#mask0)">
<path d="M28.2628 37.3243L29 36.5201L29.7372 37.3243L34.0481 42.0272C34.6164 42.6471 35.4187 43 36.2596 43H37.9446C42.021 43 45.4455 39.9349 45.8957 35.8835L46.2658 32.5522C46.5949 29.5903 44.2765 27 41.2964 27H16.7036C13.7235 27 11.4051 29.5903 11.7342 32.5522L12.1043 35.8835C12.5545 39.9349 15.979 43 20.0554 43H21.7404C22.5813 43 23.3836 42.6471 23.9519 42.0272L28.2628 37.3243Z" stroke="#228596" stroke-width="2"/>
<path d="M42.5 33V34.4773C42.5 37.443 39.9535 39.7685 37 39.5V39.5" stroke="#FCAB2D" stroke-width="2" stroke-linecap="round"/>
<path d="M11.5 9L7.38149 22.4788C6.46558 25.4763 6 28.5932 6 31.7276L6 43C6 49.0751 10.9249 54 17 54H23C25.7614 54 28 51.7614 28 49V49" stroke="#228596" stroke-width="2" stroke-linecap="round"/>
<path d="M31 47L28 49L25 47" stroke="#228596" stroke-width="2" stroke-linecap="round"/>
<path d="M16.4997 49.5006V49.5006C13.5835 49.5006 11.0635 47.4635 10.4523 44.612L9.99974 42.5006" stroke="#FCAB2D" stroke-width="2" stroke-linecap="round"/>
<path d="M13.5004 15.9997L15.4541 9.48597C16.0293 7.568 14.9254 5.54991 13.0001 4.99975V4.99975" stroke="#FCAB2D" stroke-width="2" stroke-linecap="round"/>
<circle r="6" transform="matrix(-1 0 0 1 47.4426 11.5566)" stroke="#FCAB2D" stroke-width="2"/>
<path fill-rule="evenodd" clip-rule="evenodd" d="M47.4426 0.556641C46.8903 0.556641 46.4426 1.00436 46.4426 1.55664V5.55664C46.4426 6.10893 46.8903 6.55664 47.4426 6.55664C47.9949 6.55664 48.4426 6.10893 48.4426 5.55664V1.55664C48.4426 1.00436 47.9949 0.556641 47.4426 0.556641Z" fill="#FCAB2D"/>
<path fill-rule="evenodd" clip-rule="evenodd" d="M47.4426 16.5566C46.8903 16.5566 46.4426 17.0044 46.4426 17.5566V21.5566C46.4426 22.1089 46.8903 22.5566 47.4426 22.5566C47.9949 22.5566 48.4426 22.1089 48.4426 21.5566V17.5566C48.4426 17.0044 47.9949 16.5566 47.4426 16.5566Z" fill="#FCAB2D"/>
<path fill-rule="evenodd" clip-rule="evenodd" d="M58.4426 11.5566C58.4426 11.0044 57.9949 10.5566 57.4426 10.5566H53.4426C52.8903 10.5566 52.4426 11.0044 52.4426 11.5566C52.4426 12.1089 52.8903 12.5566 53.4426 12.5566H57.4426C57.9949 12.5566 58.4426 12.1089 58.4426 11.5566Z" fill="#FCAB2D"/>
<path fill-rule="evenodd" clip-rule="evenodd" d="M42.4426 11.5566C42.4426 11.0044 41.9949 10.5566 41.4426 10.5566H37.4426C36.8903 10.5566 36.4426 11.0044 36.4426 11.5566C36.4426 12.1089 36.8903 12.5566 37.4426 12.5566H41.4426C41.9949 12.5566 42.4426 12.1089 42.4426 11.5566Z" fill="#FCAB2D"/>
<path fill-rule="evenodd" clip-rule="evenodd" d="M55.222 3.77937C54.8315 3.38885 54.1983 3.38885 53.8078 3.77937L50.9794 6.6078C50.5888 6.99832 50.5888 7.63149 50.9794 8.02201C51.3699 8.41254 52.003 8.41254 52.3936 8.02201L55.222 5.19359C55.6125 4.80306 55.6125 4.1699 55.222 3.77937Z" fill="#FCAB2D"/>
<path fill-rule="evenodd" clip-rule="evenodd" d="M43.9075 15.0938C43.517 14.7033 42.8839 14.7033 42.4933 15.0938L39.6649 17.9223C39.2744 18.3128 39.2744 18.9459 39.6649 19.3365C40.0554 19.727 40.6886 19.727 41.0791 19.3365L43.9075 16.508C44.2981 16.1175 44.2981 15.4843 43.9075 15.0938Z" fill="#FCAB2D"/>
<path fill-rule="evenodd" clip-rule="evenodd" d="M55.2217 19.336C55.6123 18.9455 55.6123 18.3123 55.2217 17.9218L52.3933 15.0934C52.0028 14.7028 51.3696 14.7028 50.9791 15.0934C50.5886 15.4839 50.5886 16.1171 50.9791 16.5076L53.8075 19.336C54.198 19.7265 54.8312 19.7265 55.2217 19.336Z" fill="#FCAB2D"/>
<path fill-rule="evenodd" clip-rule="evenodd" d="M43.9073 8.02156C44.2978 7.63104 44.2978 6.99787 43.9073 6.60735L41.0788 3.77892C40.6883 3.3884 40.0552 3.3884 39.6646 3.77892C39.2741 4.16944 39.2741 4.80261 39.6646 5.19313L42.4931 8.02156C42.8836 8.41208 43.5167 8.41208 43.9073 8.02156Z" fill="#FCAB2D"/>
</g>
</svg>
