<svg width="55" height="55" viewBox="0 0 55 55" fill="none" xmlns="http://www.w3.org/2000/svg">
<path d="M23.2628 37.3243L24 36.5201L24.7372 37.3243L29.0481 42.0272C29.6164 42.6471 30.4187 43 31.2596 43H32.9446C37.021 43 40.4455 39.9349 40.8957 35.8835L41.2658 32.5522C41.5949 29.5903 39.2765 27 36.2964 27H11.7036C8.72353 27 6.40508 29.5903 6.73417 32.5522L7.10432 35.8835C7.55448 39.9349 10.979 43 15.0554 43H16.7404C17.5813 43 18.3836 42.6471 18.9519 42.0272L23.2628 37.3243Z" stroke="#228596" stroke-width="2"/>
<path d="M37.5 33V34.4773C37.5 37.443 34.9535 39.7685 32 39.5V39.5" stroke="#FCAB2D" stroke-width="2" stroke-linecap="round"/>
<path d="M6.5 9L2.38149 22.4788C1.46558 25.4763 1 28.5932 1 31.7276L1 43C1 49.0751 5.92487 54 12 54H18C20.7614 54 23 51.7614 23 49V49" stroke="#228596" stroke-width="2" stroke-linecap="round"/>
<path d="M26 47L23 49L20 47" stroke="#228596" stroke-width="2" stroke-linecap="round"/>
<path d="M11.4999 49.4996V49.4996C8.58362 49.4996 6.06361 47.4625 5.45242 44.611L4.99987 42.4996" stroke="#FCAB2D" stroke-width="2" stroke-linecap="round"/>
<path d="M8.50024 15.9997L10.4539 9.48597C11.0292 7.568 9.92532 5.54991 7.99999 4.99975V4.99975" stroke="#FCAB2D" stroke-width="2" stroke-linecap="round"/>
<circle r="6" transform="matrix(-1 0 0 1 42.4426 11.5566)" stroke="#FCAB2D" stroke-width="2"/>
<path fill-rule="evenodd" clip-rule="evenodd" d="M42.4426 0.556641C41.8903 0.556641 41.4426 1.00436 41.4426 1.55664V5.55664C41.4426 6.10893 41.8903 6.55664 42.4426 6.55664C42.9949 6.55664 43.4426 6.10893 43.4426 5.55664V1.55664C43.4426 1.00436 42.9949 0.556641 42.4426 0.556641Z" fill="#FCAB2D"/>
<path fill-rule="evenodd" clip-rule="evenodd" d="M42.4426 16.5566C41.8903 16.5566 41.4426 17.0044 41.4426 17.5566V21.5566C41.4426 22.1089 41.8903 22.5566 42.4426 22.5566C42.9949 22.5566 43.4426 22.1089 43.4426 21.5566V17.5566C43.4426 17.0044 42.9949 16.5566 42.4426 16.5566Z" fill="#FCAB2D"/>
<path fill-rule="evenodd" clip-rule="evenodd" d="M53.4426 11.5566C53.4426 11.0044 52.9949 10.5566 52.4426 10.5566H48.4426C47.8903 10.5566 47.4426 11.0044 47.4426 11.5566C47.4426 12.1089 47.8903 12.5566 48.4426 12.5566H52.4426C52.9949 12.5566 53.4426 12.1089 53.4426 11.5566Z" fill="#FCAB2D"/>
<path fill-rule="evenodd" clip-rule="evenodd" d="M37.4426 11.5566C37.4426 11.0044 36.9949 10.5566 36.4426 10.5566H32.4426C31.8903 10.5566 31.4426 11.0044 31.4426 11.5566C31.4426 12.1089 31.8903 12.5566 32.4426 12.5566H36.4426C36.9949 12.5566 37.4426 12.1089 37.4426 11.5566Z" fill="#FCAB2D"/>
<path fill-rule="evenodd" clip-rule="evenodd" d="M50.2218 3.7784C49.8312 3.38787 49.1981 3.38787 48.8075 3.7784L45.9791 6.60682C45.5886 6.99735 45.5886 7.63051 45.9791 8.02104C46.3696 8.41156 47.0028 8.41156 47.3933 8.02104L50.2218 5.19261C50.6123 4.80209 50.6123 4.16892 50.2218 3.7784Z" fill="#FCAB2D"/>
<path fill-rule="evenodd" clip-rule="evenodd" d="M38.9073 15.0919C38.5168 14.7013 37.8836 14.7013 37.4931 15.0919L34.6647 17.9203C34.2741 18.3108 34.2741 18.944 34.6647 19.3345C35.0552 19.725 35.6884 19.725 36.0789 19.3345L38.9073 16.5061C39.2978 16.1156 39.2978 15.4824 38.9073 15.0919Z" fill="#FCAB2D"/>
<path fill-rule="evenodd" clip-rule="evenodd" d="M50.2218 19.3341C50.6124 18.9435 50.6124 18.3104 50.2218 17.9198L47.3934 15.0914C47.0029 14.7009 46.3697 14.7009 45.9792 15.0914C45.5887 15.4819 45.5887 16.1151 45.9792 16.5056L48.8076 19.3341C49.1982 19.7246 49.8313 19.7246 50.2218 19.3341Z" fill="#FCAB2D"/>
<path fill-rule="evenodd" clip-rule="evenodd" d="M38.9074 8.02058C39.2979 7.63006 39.2979 6.99689 38.9074 6.60637L36.079 3.77794C35.6884 3.38742 35.0553 3.38742 34.6648 3.77794C34.2742 4.16847 34.2742 4.80163 34.6648 5.19216L37.4932 8.02058C37.8837 8.41111 38.5169 8.41111 38.9074 8.02058Z" fill="#FCAB2D"/>
</svg>
