<svg width="59" height="58" viewBox="0 0 59 58" fill="none" xmlns="http://www.w3.org/2000/svg">
<path d="M9.59996 30.6755L12.3764 28.3295C12.8022 27.9697 12.8516 27.3313 12.4862 26.9103L8.51657 22.3362C8.15276 21.917 7.51714 21.8743 7.10053 22.2411L5.28393 23.8404C4.88096 24.1952 4.83006 24.8049 5.16862 25.2216L7 27.4756L10.25 31.4756L14.7602 37.0266C16.0059 38.5597 17.9263 39.3815 19.8954 39.224L39.7479 37.6358C41.0077 37.535 42.2411 38.0356 43.0744 38.9859L51.3028 48.37" stroke="#228596" stroke-width="2" stroke-linecap="round"/>
<path d="M4.0625 19.9746L4.99303 19.1534C6.65246 17.6889 9.1857 17.8503 10.6458 19.5136L13.7939 23.0996" stroke="#FCAB2D" stroke-width="2" stroke-linecap="round"/>
<path d="M44.9999 46.5002L40.8836 41.8058C40.4681 41.3319 39.8536 41.0816 39.2253 41.1303L37.1676 41.2898" stroke="#FCAB2D" stroke-width="2" stroke-linecap="round"/>
<path d="M10.1504 48.3691L19.8556 33.1373C20.0392 32.8492 20.3573 32.6747 20.699 32.6747L29.6698 32.6747C29.9735 32.6747 30.2609 32.8128 30.4506 33.05L34.1504 37.6747" stroke="#228596" stroke-width="2" stroke-linecap="round"/>
<path d="M8.15039 45.3691L10.6504 41.4455L11.9004 39.4837" stroke="#FCAB2D" stroke-width="2" stroke-linecap="round"/>
<circle cx="42.5566" cy="15.5566" r="6" stroke="#FCAB2D" stroke-width="2"/>
<path fill-rule="evenodd" clip-rule="evenodd" d="M42.5566 4.55664C43.1089 4.55664 43.5566 5.00436 43.5566 5.55664V9.55664C43.5566 10.1089 43.1089 10.5566 42.5566 10.5566C42.0044 10.5566 41.5566 10.1089 41.5566 9.55664V5.55664C41.5566 5.00436 42.0044 4.55664 42.5566 4.55664Z" fill="#FCAB2D"/>
<path fill-rule="evenodd" clip-rule="evenodd" d="M42.5566 20.5566C43.1089 20.5566 43.5566 21.0044 43.5566 21.5566V25.5566C43.5566 26.1089 43.1089 26.5566 42.5566 26.5566C42.0044 26.5566 41.5566 26.1089 41.5566 25.5566V21.5566C41.5566 21.0044 42.0044 20.5566 42.5566 20.5566Z" fill="#FCAB2D"/>
<path fill-rule="evenodd" clip-rule="evenodd" d="M31.5566 15.5566C31.5566 15.0044 32.0044 14.5566 32.5566 14.5566H36.5566C37.1089 14.5566 37.5566 15.0044 37.5566 15.5566C37.5566 16.1089 37.1089 16.5566 36.5566 16.5566H32.5566C32.0044 16.5566 31.5566 16.1089 31.5566 15.5566Z" fill="#FCAB2D"/>
<path fill-rule="evenodd" clip-rule="evenodd" d="M47.5566 15.5566C47.5566 15.0044 48.0044 14.5566 48.5566 14.5566H52.5566C53.1089 14.5566 53.5566 15.0044 53.5566 15.5566C53.5566 16.1089 53.1089 16.5566 52.5566 16.5566H48.5566C48.0044 16.5566 47.5566 16.1089 47.5566 15.5566Z" fill="#FCAB2D"/>
<path fill-rule="evenodd" clip-rule="evenodd" d="M34.7775 7.7784C35.168 7.38787 35.8012 7.38787 36.1917 7.7784L39.0202 10.6068C39.4107 10.9973 39.4107 11.6305 39.0202 12.021C38.6296 12.4116 37.9965 12.4116 37.6059 12.021L34.7775 9.19261C34.387 8.80209 34.387 8.16892 34.7775 7.7784Z" fill="#FCAB2D"/>
<path fill-rule="evenodd" clip-rule="evenodd" d="M46.092 19.0919C46.4825 18.7013 47.1157 18.7013 47.5062 19.0919L50.3346 21.9203C50.7251 22.3108 50.7251 22.944 50.3346 23.3345C49.9441 23.725 49.3109 23.725 48.9204 23.3345L46.092 20.5061C45.7014 20.1156 45.7014 19.4824 46.092 19.0919Z" fill="#FCAB2D"/>
<path fill-rule="evenodd" clip-rule="evenodd" d="M34.7774 23.3341C34.3869 22.9435 34.3869 22.3104 34.7774 21.9198L37.6058 19.0914C37.9964 18.7009 38.6295 18.7009 39.0201 19.0914C39.4106 19.4819 39.4106 20.1151 39.0201 20.5056L36.1916 23.3341C35.8011 23.7246 35.1679 23.7246 34.7774 23.3341Z" fill="#FCAB2D"/>
<path fill-rule="evenodd" clip-rule="evenodd" d="M46.0919 12.0206C45.7013 11.6301 45.7013 10.9969 46.0919 10.6064L48.9203 7.77794C49.3108 7.38742 49.944 7.38742 50.3345 7.77794C50.725 8.16847 50.725 8.80163 50.3345 9.19216L47.5061 12.0206C47.1156 12.4111 46.4824 12.4111 46.0919 12.0206Z" fill="#FCAB2D"/>
</svg>
