<svg width="60" height="60" viewBox="0 0 60 60" fill="none" xmlns="http://www.w3.org/2000/svg">
<mask id="mask0" mask-type="alpha" maskUnits="userSpaceOnUse" x="0" y="0" width="60" height="60">
<rect x="0.5" y="0.5" width="59" height="59" rx="9.5" fill="#C4C4C4" stroke="black"/>
</mask>
<g mask="url(#mask0)">
<path d="M10.6001 32.6765L13.3765 30.3305C13.8023 29.9707 13.8517 29.3322 13.4864 28.9112L9.51669 24.3372C9.15288 23.918 8.51726 23.8753 8.10065 24.2421L6.28406 25.8414C5.88108 26.1962 5.83018 26.8059 6.16874 27.2226L8.00012 29.4766L11.2501 33.4766L15.7603 39.0276C17.006 40.5607 18.9264 41.3825 20.8955 41.2249L40.748 39.6368C42.0078 39.536 43.2412 40.0366 44.0745 40.9869L52.303 50.371" stroke="#228596" stroke-width="2" stroke-linecap="round"/>
<path d="M5.06262 21.9766L5.99316 21.1553C7.65258 19.6909 10.1858 19.8523 11.646 21.5155L14.7941 25.1016" stroke="#FCAB2D" stroke-width="2" stroke-linecap="round"/>
<path d="M46.0001 48.5012L41.8838 43.8068C41.4684 43.3329 40.8539 43.0826 40.2256 43.1313L38.1679 43.2908" stroke="#FCAB2D" stroke-width="2" stroke-linecap="round"/>
<path d="M11.1505 50.3711L20.8557 35.1393C21.0393 34.8511 21.3574 34.6766 21.6991 34.6766L30.6699 34.6766C30.9737 34.6766 31.261 34.8147 31.4508 35.0519L35.1505 39.6766" stroke="#228596" stroke-width="2" stroke-linecap="round"/>
<path d="M9.15051 47.3711L11.6505 43.4475L12.9005 41.4857" stroke="#FCAB2D" stroke-width="2" stroke-linecap="round"/>
<circle cx="43.5566" cy="17.5566" r="6" stroke="#FCAB2D" stroke-width="2"/>
<path fill-rule="evenodd" clip-rule="evenodd" d="M43.5566 6.55664C44.1089 6.55664 44.5566 7.00436 44.5566 7.55664V11.5566C44.5566 12.1089 44.1089 12.5566 43.5566 12.5566C43.0044 12.5566 42.5566 12.1089 42.5566 11.5566V7.55664C42.5566 7.00436 43.0044 6.55664 43.5566 6.55664Z" fill="#FCAB2D"/>
<path fill-rule="evenodd" clip-rule="evenodd" d="M43.5566 22.5566C44.1089 22.5566 44.5566 23.0044 44.5566 23.5566V27.5566C44.5566 28.1089 44.1089 28.5566 43.5566 28.5566C43.0044 28.5566 42.5566 28.1089 42.5566 27.5566V23.5566C42.5566 23.0044 43.0044 22.5566 43.5566 22.5566Z" fill="#FCAB2D"/>
<path fill-rule="evenodd" clip-rule="evenodd" d="M32.5566 17.5566C32.5566 17.0044 33.0044 16.5566 33.5566 16.5566H37.5566C38.1089 16.5566 38.5566 17.0044 38.5566 17.5566C38.5566 18.1089 38.1089 18.5566 37.5566 18.5566H33.5566C33.0044 18.5566 32.5566 18.1089 32.5566 17.5566Z" fill="#FCAB2D"/>
<path fill-rule="evenodd" clip-rule="evenodd" d="M48.5566 17.5566C48.5566 17.0044 49.0044 16.5566 49.5566 16.5566H53.5566C54.1089 16.5566 54.5566 17.0044 54.5566 17.5566C54.5566 18.1089 54.1089 18.5566 53.5566 18.5566H49.5566C49.0044 18.5566 48.5566 18.1089 48.5566 17.5566Z" fill="#FCAB2D"/>
<path fill-rule="evenodd" clip-rule="evenodd" d="M35.7773 9.77937C36.1678 9.38885 36.801 9.38885 37.1915 9.77937L40.0199 12.6078C40.4104 12.9983 40.4104 13.6315 40.0199 14.022C39.6294 14.4125 38.9962 14.4125 38.6057 14.022L35.7773 11.1936C35.3867 10.8031 35.3867 10.1699 35.7773 9.77937Z" fill="#FCAB2D"/>
<path fill-rule="evenodd" clip-rule="evenodd" d="M47.0917 21.0938C47.4822 20.7033 48.1154 20.7033 48.5059 21.0938L51.3344 23.9223C51.7249 24.3128 51.7249 24.9459 51.3344 25.3365C50.9438 25.727 50.3107 25.727 49.9201 25.3365L47.0917 22.508C46.7012 22.1175 46.7012 21.4843 47.0917 21.0938Z" fill="#FCAB2D"/>
<path fill-rule="evenodd" clip-rule="evenodd" d="M35.7775 25.336C35.387 24.9455 35.387 24.3123 35.7775 23.9218L38.606 21.0934C38.9965 20.7028 39.6297 20.7028 40.0202 21.0934C40.4107 21.4839 40.4107 22.1171 40.0202 22.5076L37.1918 25.336C36.8012 25.7265 36.1681 25.7265 35.7775 25.336Z" fill="#FCAB2D"/>
<path fill-rule="evenodd" clip-rule="evenodd" d="M47.092 14.0216C46.7015 13.631 46.7015 12.9979 47.092 12.6073L49.9204 9.77892C50.3109 9.3884 50.9441 9.3884 51.3346 9.77892C51.7252 10.1694 51.7252 10.8026 51.3346 11.1931L48.5062 14.0216C48.1157 14.4121 47.4825 14.4121 47.092 14.0216Z" fill="#FCAB2D"/>
</g>
</svg>
