<svg width="44" height="41" viewBox="0 0 44 41" fill="none" xmlns="http://www.w3.org/2000/svg">
<path d="M18.25 17.25H19.25V16.25V11L24.75 11V16.25V17.25H25.75H31V22.75H25.75H24.75V23.75V29H19.25V23.75V22.75H18.25H13L13 17.25H18.25Z" stroke="#FCAB2D" stroke-width="2"/>
<path d="M21.2385 4.96398L22 5.8586L22.7615 4.96398C25.1479 2.16039 28.3296 1 32.1951 1C38.8701 1 43 6.82083 43 11.579C43 16.847 39.9775 22.0509 35.6695 26.8524C31.5648 31.4272 26.4158 35.502 22 38.759C17.5842 35.502 12.4352 31.4272 8.33052 26.8524C4.02245 22.0509 1 16.847 1 11.579C1 6.82083 5.12993 1 11.8049 1C15.6703 1 18.8521 2.16039 21.2385 4.96398Z" stroke="#228596" stroke-width="2"/>
<path d="M39 13.5L39.0615 13.0079C39.5811 8.85151 36.652 5.05361 32.5 4.5V4.5" stroke="#FCAB2D" stroke-width="2" stroke-linecap="round"/>
<path d="M10.5 34C14 37 18 40 18 40" stroke="#FCAB2D" stroke-width="2" stroke-linecap="round"/>
</svg>
