<svg width="28" height="28" viewBox="0 0 28 28" fill="none" xmlns="http://www.w3.org/2000/svg">
<circle cx="14" cy="14" r="14" fill="#FE5000"/>
<mask id="mask0" mask-type="alpha" maskUnits="userSpaceOnUse" x="0" y="0" width="28" height="28">
<circle cx="14" cy="14" r="14" fill="#407DC5"/>
</mask>
<g mask="url(#mask0)">
<path fill-rule="evenodd" clip-rule="evenodd" d="M15.6176 9.87089C15.6176 8.98716 14.8876 8.26855 13.99 8.26855C13.0932 8.26855 12.3624 8.98716 12.3624 9.87089C12.3624 10.7539 13.0932 11.473 13.99 11.473C14.8876 11.473 15.6176 10.7539 15.6176 9.87089ZM17.9209 9.87071C17.9209 12.0045 16.1583 13.7403 13.9899 13.7403C11.822 13.7403 10.0589 12.0045 10.0589 9.87071C10.0589 7.73619 11.822 6 13.9899 6C16.1583 6 17.9209 7.73619 17.9209 9.87071ZM17.8732 15.9697C17.1624 16.4093 16.3907 16.721 15.5905 16.9004L17.788 19.0644C18.2382 19.5067 18.2382 20.2251 17.788 20.6679C17.3383 21.1107 16.6094 21.1107 16.1602 20.6679L13.9996 18.5415L11.8409 20.6679C11.6158 20.889 11.3208 20.9997 11.0259 20.9997C10.7314 20.9997 10.4369 20.889 10.2119 20.6679C9.76214 20.2251 9.76214 19.5072 10.2114 19.0644L12.4091 16.9004C11.609 16.721 10.8373 16.4088 10.1265 15.9697C9.58856 15.6358 9.42698 14.9361 9.76591 14.406C10.1039 13.8753 10.8147 13.7155 11.3535 14.0494C12.9628 15.0461 15.0359 15.0464 16.6461 14.0494C17.185 13.7155 17.8955 13.8753 18.2342 14.406C18.5731 14.9357 18.4111 15.6358 17.8732 15.9697Z" fill="white"/>
</g>
</svg>
