<svg width="27" height="27" viewBox="0 0 27 27" fill="none" xmlns="http://www.w3.org/2000/svg">
<path d="M13.0703 26.728C11.9657 26.728 11.0703 25.8326 11.0703 24.728V2.72803C11.0703 1.62346 11.9657 0.728029 13.0703 0.728029C14.1749 0.728029 15.0703 1.62346 15.0703 2.72803V24.728C15.0703 25.8326 14.1749 26.728 13.0703 26.728Z" fill="#FF8C00"/>
<path d="M26.0703 13.728C26.0703 14.8326 25.1749 15.728 24.0703 15.728L2.07031 15.728C0.965744 15.728 0.070314 14.8326 0.070314 13.728C0.070314 12.6235 0.965746 11.728 2.07031 11.728L24.0703 11.728C25.1749 11.728 26.0703 12.6235 26.0703 13.728Z" fill="#FF8C00"/>
</svg>
