<svg width="60" height="60" viewBox="0 0 60 60" fill="none" xmlns="http://www.w3.org/2000/svg">
<mask id="mask0" mask-type="alpha" maskUnits="userSpaceOnUse" x="0" y="0" width="60" height="60">
<rect x="1" y="1" width="58" height="58" rx="9" fill="#C4C4C4" stroke="black" stroke-width="2"/>
</mask>
<g mask="url(#mask0)">
<circle cx="30" cy="30" r="21" stroke="#228596" stroke-width="2"/>
<path d="M55 30C55 43.8071 43.8071 55 30 55" stroke="#FCAB2D" stroke-width="2" stroke-linecap="round"/>
<circle cx="30" cy="30" r="13" stroke="#228596" stroke-width="2"/>
<path d="M21 30C21 25.0294 25.0294 21 30 21" stroke="#FCAB2D" stroke-width="2" stroke-linecap="round"/>
<path d="M23 11L26 18" stroke="#228596" stroke-width="2"/>
<path d="M35.6152 19L38.6152 11" stroke="#228596" stroke-width="2"/>
<path d="M23 50L26 42" stroke="#228596" stroke-width="2"/>
<path d="M35.6152 42L38.6152 50" stroke="#228596" stroke-width="2"/>
<path d="M10 38L17.3086 35.3075" stroke="#228596" stroke-width="2"/>
<path d="M17.3086 25.6914L9.30859 22.6914" stroke="#228596" stroke-width="2"/>
<path d="M50.3086 38.3076L42.3086 35.3076" stroke="#228596" stroke-width="2"/>
<path d="M42.3086 25.6924L50.3086 22.6924" stroke="#228596" stroke-width="2"/>
</g>
</svg>
