<svg width="58" height="57" viewBox="0 0 58 57" fill="none" xmlns="http://www.w3.org/2000/svg">
<path d="M4 53C4 53.5523 4.44772 54 5 54C5.55228 54 6 53.5523 6 53H4ZM22.0733 15.6508L21.0989 15.8757V15.8757L22.0733 15.6508ZM11 12H16.2269V10H11V12ZM6 53V17H4V53H6ZM21.0989 15.8757L22.0256 19.8915L23.9744 19.4418L23.0477 15.426L21.0989 15.8757ZM16.2269 12C18.5552 12 20.5753 13.607 21.0989 15.8757L23.0477 15.426C22.3147 12.2499 19.4865 10 16.2269 10V12ZM11 10C7.13401 10 4 13.134 4 17H6C6 14.2386 8.23858 12 11 12V10Z" fill="#228596"/>
<path d="M34.6321 28.3699L14.936 31.8428C13.9858 26.4075 17.6153 21.2161 23.0475 20.2583C28.4798 19.3004 33.666 22.9374 34.6321 28.3699Z" stroke="#228596" stroke-width="2"/>
<rect x="24.3203" y="33.2344" width="2" height="4" rx="1" transform="rotate(-10 24.3203 33.2344)" fill="#228596"/>
<rect x="18.4121" y="34.2764" width="2" height="4" rx="1" transform="rotate(-10 18.4121 34.2764)" fill="#228596"/>
<rect x="30.2285" y="32.1924" width="2" height="4" rx="1" transform="rotate(-10 30.2285 32.1924)" fill="#228596"/>
<rect x="25.3613" y="39.1436" width="2" height="8" rx="1" transform="rotate(-10 25.3613 39.1436)" fill="#228596"/>
<rect x="19.4531" y="40.1855" width="2" height="6" rx="1" transform="rotate(-10 19.4531 40.1855)" fill="#228596"/>
<rect x="31.2715" y="38.1016" width="2" height="4" rx="1" transform="rotate(-10 31.2715 38.1016)" fill="#228596"/>
<rect x="27.0977" y="48.9912" width="2" height="6" rx="1" transform="rotate(-10 27.0977 48.9912)" fill="#228596"/>
<rect x="20.8418" y="48.0635" width="2" height="6" rx="1" transform="rotate(-10 20.8418 48.0635)" fill="#228596"/>
<rect x="32.3125" y="44.0107" width="2" height="6" rx="1" transform="rotate(-10 32.3125 44.0107)" fill="#228596"/>
<path d="M1 24.5V15.9721C1 13.2313 2.54854 10.7257 5 9.5V9.5" stroke="#FCAB2D" stroke-width="2" stroke-linecap="round"/>
<path d="M29.5 26V26C28.3085 24.2127 26.0654 23.4099 24 24V24" stroke="#FCAB2D" stroke-width="2" stroke-linecap="round"/>
<circle cx="45.5574" cy="12.5566" r="6" stroke="#FCAB2D" stroke-width="2"/>
<path fill-rule="evenodd" clip-rule="evenodd" d="M45.5574 1.55664C46.1097 1.55664 46.5574 2.00436 46.5574 2.55664V6.55664C46.5574 7.10893 46.1097 7.55664 45.5574 7.55664C45.0051 7.55664 44.5574 7.10893 44.5574 6.55664V2.55664C44.5574 2.00436 45.0051 1.55664 45.5574 1.55664Z" fill="#FCAB2D"/>
<path fill-rule="evenodd" clip-rule="evenodd" d="M45.5574 17.5566C46.1097 17.5566 46.5574 18.0044 46.5574 18.5566V22.5566C46.5574 23.1089 46.1097 23.5566 45.5574 23.5566C45.0051 23.5566 44.5574 23.1089 44.5574 22.5566V18.5566C44.5574 18.0044 45.0051 17.5566 45.5574 17.5566Z" fill="#FCAB2D"/>
<path fill-rule="evenodd" clip-rule="evenodd" d="M34.5574 12.5566C34.5574 12.0044 35.0051 11.5566 35.5574 11.5566H39.5574C40.1097 11.5566 40.5574 12.0044 40.5574 12.5566C40.5574 13.1089 40.1097 13.5566 39.5574 13.5566H35.5574C35.0051 13.5566 34.5574 13.1089 34.5574 12.5566Z" fill="#FCAB2D"/>
<path fill-rule="evenodd" clip-rule="evenodd" d="M50.5574 12.5566C50.5574 12.0044 51.0051 11.5566 51.5574 11.5566H55.5574C56.1097 11.5566 56.5574 12.0044 56.5574 12.5566C56.5574 13.1089 56.1097 13.5566 55.5574 13.5566H51.5574C51.0051 13.5566 50.5574 13.1089 50.5574 12.5566Z" fill="#FCAB2D"/>
<path fill-rule="evenodd" clip-rule="evenodd" d="M37.7782 4.7784C38.1688 4.38787 38.8019 4.38787 39.1925 4.7784L42.0209 7.60682C42.4114 7.99735 42.4114 8.63051 42.0209 9.02104C41.6304 9.41156 40.9972 9.41156 40.6067 9.02104L37.7782 6.19261C37.3877 5.80209 37.3877 5.16892 37.7782 4.7784Z" fill="#FCAB2D"/>
<path fill-rule="evenodd" clip-rule="evenodd" d="M49.0927 16.0919C49.4832 15.7013 50.1164 15.7013 50.5069 16.0919L53.3353 18.9203C53.7259 19.3108 53.7259 19.944 53.3353 20.3345C52.9448 20.725 52.3116 20.725 51.9211 20.3345L49.0927 17.5061C48.7022 17.1156 48.7022 16.4824 49.0927 16.0919Z" fill="#FCAB2D"/>
<path fill-rule="evenodd" clip-rule="evenodd" d="M37.7782 20.3341C37.3876 19.9435 37.3876 19.3104 37.7782 18.9198L40.6066 16.0914C40.9971 15.7009 41.6303 15.7009 42.0208 16.0914C42.4113 16.4819 42.4113 17.1151 42.0208 17.5056L39.1924 20.3341C38.8018 20.7246 38.1687 20.7246 37.7782 20.3341Z" fill="#FCAB2D"/>
<path fill-rule="evenodd" clip-rule="evenodd" d="M49.0926 9.02058C48.7021 8.63006 48.7021 7.99689 49.0926 7.60637L51.921 4.77794C52.3116 4.38742 52.9447 4.38742 53.3352 4.77794C53.7258 5.16847 53.7258 5.80163 53.3352 6.19216L50.5068 9.02058C50.1163 9.41111 49.4831 9.41111 49.0926 9.02058Z" fill="#FCAB2D"/>
</svg>
