<svg width="60" height="60" viewBox="0 0 60 60" fill="none" xmlns="http://www.w3.org/2000/svg">
<mask id="mask0" mask-type="alpha" maskUnits="userSpaceOnUse" x="0" y="0" width="60" height="60">
<rect x="1" y="1" width="58" height="58" rx="9" fill="#C4C4C4" stroke="black" stroke-width="2"/>
</mask>
<g mask="url(#mask0)">
<path d="M6 53C6 53.5523 6.44772 54 7 54C7.55228 54 8 53.5523 8 53H6ZM24.0733 15.6508L23.0989 15.8757V15.8757L24.0733 15.6508ZM13 12H18.2269V10H13V12ZM8 53V17H6V53H8ZM23.0989 15.8757L24.0256 19.8915L25.9744 19.4418L25.0477 15.426L23.0989 15.8757ZM18.2269 12C20.5552 12 22.5753 13.607 23.0989 15.8757L25.0477 15.426C24.3147 12.2499 21.4865 10 18.2269 10V12ZM13 10C9.13401 10 6 13.134 6 17H8C8 14.2386 10.2386 12 13 12V10Z" fill="#228596"/>
<path d="M36.6321 28.3699L16.936 31.8428C15.9858 26.4075 19.6153 21.2161 25.0475 20.2583C30.4798 19.3004 35.666 22.9374 36.6321 28.3699Z" stroke="#228596" stroke-width="2"/>
<rect x="26.3203" y="33.2344" width="2" height="4" rx="1" transform="rotate(-10 26.3203 33.2344)" fill="#228596"/>
<rect x="20.4121" y="34.2764" width="2" height="4" rx="1" transform="rotate(-10 20.4121 34.2764)" fill="#228596"/>
<rect x="32.2285" y="32.1924" width="2" height="4" rx="1" transform="rotate(-10 32.2285 32.1924)" fill="#228596"/>
<rect x="27.3613" y="39.1436" width="2" height="8" rx="1" transform="rotate(-10 27.3613 39.1436)" fill="#228596"/>
<rect x="21.4531" y="40.1855" width="2" height="6" rx="1" transform="rotate(-10 21.4531 40.1855)" fill="#228596"/>
<rect x="33.2715" y="38.1016" width="2" height="4" rx="1" transform="rotate(-10 33.2715 38.1016)" fill="#228596"/>
<rect x="29.0977" y="48.9912" width="2" height="6" rx="1" transform="rotate(-10 29.0977 48.9912)" fill="#228596"/>
<rect x="22.8418" y="48.0635" width="2" height="6" rx="1" transform="rotate(-10 22.8418 48.0635)" fill="#228596"/>
<rect x="34.3125" y="44.0107" width="2" height="6" rx="1" transform="rotate(-10 34.3125 44.0107)" fill="#228596"/>
<path d="M3 24.5V15.9721C3 13.2313 4.54854 10.7257 7 9.5V9.5" stroke="#FCAB2D" stroke-width="2" stroke-linecap="round"/>
<path d="M31.5 26V26C30.3085 24.2127 28.0654 23.4099 26 24V24" stroke="#FCAB2D" stroke-width="2" stroke-linecap="round"/>
<circle cx="47.5574" cy="12.5566" r="6" stroke="#FCAB2D" stroke-width="2"/>
<path fill-rule="evenodd" clip-rule="evenodd" d="M47.5574 1.55664C48.1097 1.55664 48.5574 2.00436 48.5574 2.55664V6.55664C48.5574 7.10893 48.1097 7.55664 47.5574 7.55664C47.0051 7.55664 46.5574 7.10893 46.5574 6.55664V2.55664C46.5574 2.00436 47.0051 1.55664 47.5574 1.55664Z" fill="#FCAB2D"/>
<path fill-rule="evenodd" clip-rule="evenodd" d="M47.5574 17.5566C48.1097 17.5566 48.5574 18.0044 48.5574 18.5566V22.5566C48.5574 23.1089 48.1097 23.5566 47.5574 23.5566C47.0051 23.5566 46.5574 23.1089 46.5574 22.5566V18.5566C46.5574 18.0044 47.0051 17.5566 47.5574 17.5566Z" fill="#FCAB2D"/>
<path fill-rule="evenodd" clip-rule="evenodd" d="M36.5574 12.5566C36.5574 12.0044 37.0051 11.5566 37.5574 11.5566H41.5574C42.1097 11.5566 42.5574 12.0044 42.5574 12.5566C42.5574 13.1089 42.1097 13.5566 41.5574 13.5566H37.5574C37.0051 13.5566 36.5574 13.1089 36.5574 12.5566Z" fill="#FCAB2D"/>
<path fill-rule="evenodd" clip-rule="evenodd" d="M52.5574 12.5566C52.5574 12.0044 53.0051 11.5566 53.5574 11.5566H57.5574C58.1097 11.5566 58.5574 12.0044 58.5574 12.5566C58.5574 13.1089 58.1097 13.5566 57.5574 13.5566H53.5574C53.0051 13.5566 52.5574 13.1089 52.5574 12.5566Z" fill="#FCAB2D"/>
<path fill-rule="evenodd" clip-rule="evenodd" d="M39.778 4.7784C40.1685 4.38787 40.8017 4.38787 41.1922 4.7784L44.0206 7.60682C44.4112 7.99735 44.4112 8.63051 44.0206 9.02104C43.6301 9.41156 42.997 9.41156 42.6064 9.02104L39.778 6.19261C39.3875 5.80209 39.3875 5.16892 39.778 4.7784Z" fill="#FCAB2D"/>
<path fill-rule="evenodd" clip-rule="evenodd" d="M51.0925 16.0919C51.483 15.7013 52.1161 15.7013 52.5067 16.0919L55.3351 18.9203C55.7256 19.3108 55.7256 19.944 55.3351 20.3345C54.9446 20.725 54.3114 20.725 53.9209 20.3345L51.0925 17.5061C50.7019 17.1156 50.7019 16.4824 51.0925 16.0919Z" fill="#FCAB2D"/>
<path fill-rule="evenodd" clip-rule="evenodd" d="M39.7783 20.3341C39.3877 19.9435 39.3877 19.3104 39.7783 18.9198L42.6067 16.0914C42.9972 15.7009 43.6304 15.7009 44.0209 16.0914C44.4114 16.4819 44.4114 17.1151 44.0209 17.5056L41.1925 20.3341C40.802 20.7246 40.1688 20.7246 39.7783 20.3341Z" fill="#FCAB2D"/>
<path fill-rule="evenodd" clip-rule="evenodd" d="M51.0927 9.02058C50.7022 8.63006 50.7022 7.99689 51.0927 7.60637L53.9212 4.77794C54.3117 4.38742 54.9448 4.38742 55.3354 4.77794C55.7259 5.16847 55.7259 5.80163 55.3354 6.19216L52.5069 9.02058C52.1164 9.41111 51.4833 9.41111 51.0927 9.02058Z" fill="#FCAB2D"/>
</g>
</svg>
