<svg width="54" height="50" viewBox="0 0 54 50" fill="none" xmlns="http://www.w3.org/2000/svg">
<path d="M25.9652 23.1983C20.0632 25.6543 10.55 25.0481 5.61719 20.1152" stroke="#228596" stroke-width="2" stroke-linecap="round" stroke-linejoin="round"/>
<path d="M26.582 22.5806C27.5927 16.1889 31.5149 9.63187 40.1474 6.54883" stroke="#228596" stroke-width="2" stroke-linecap="round" stroke-linejoin="round"/>
<path d="M27.1973 23.1973C32.3173 27.2941 35.8298 34.2962 34.5966 42.9287" stroke="#228596" stroke-width="2" stroke-linecap="round" stroke-linejoin="round"/>
<path d="M31.5137 13.332C36.4079 16.9984 43.2292 22.5811 43.8458 36.7631" stroke="#228596" stroke-width="2" stroke-linecap="round" stroke-linejoin="round"/>
<path d="M14.8665 23.8151C14.2501 16.4158 20.4161 5.31683 30.2817 1.61719" stroke="#228596" stroke-width="2" stroke-linecap="round" stroke-linejoin="round"/>
<path d="M32.7469 31.8301C27.32 34.4244 18.5649 37.9962 8.69922 33.6799" stroke="#228596" stroke-width="2" stroke-linecap="round" stroke-linejoin="round"/>
<path fill-rule="evenodd" clip-rule="evenodd" d="M26.9999 1C39.142 1 49 10.858 49 23.0001C49 35.142 39.142 45 26.9999 45C14.858 45 5 35.142 5 23.0001C5 10.858 14.858 1 26.9999 1Z" stroke="#228596" stroke-width="2" stroke-linecap="round" stroke-linejoin="round"/>
<path d="M53.0001 23C53.0001 37.3496 41.3498 48.9999 27 48.9999" stroke="#FCAB2D" stroke-width="2" stroke-linecap="round" stroke-linejoin="round"/>
<path d="M2 18C3 12.5 5.5 8 8.5 5" stroke="#FCAB2D" stroke-width="2" stroke-linecap="round"/>
<path d="M2 29C1.5 26.5 1 24 1.5 21.5" stroke="#FCAB2D" stroke-width="2" stroke-linecap="round"/>
</svg>
