<svg width="60" height="60" viewBox="0 0 60 60" fill="none" xmlns="http://www.w3.org/2000/svg">
<mask id="mask0" mask-type="alpha" maskUnits="userSpaceOnUse" x="0" y="0" width="60" height="60">
<rect width="60" height="60" rx="10" fill="#C4C4C4"/>
</mask>
<g mask="url(#mask0)">
<path d="M28.9652 30.1983C23.0632 32.6543 13.55 32.0481 8.61719 27.1152" stroke="#228596" stroke-width="2" stroke-linecap="round" stroke-linejoin="round"/>
<path d="M29.582 29.5806C30.5927 23.1889 34.5149 16.6319 43.1474 13.5488" stroke="#228596" stroke-width="2" stroke-linecap="round" stroke-linejoin="round"/>
<path d="M30.1973 30.1973C35.3173 34.2941 38.8298 41.2962 37.5966 49.9287" stroke="#228596" stroke-width="2" stroke-linecap="round" stroke-linejoin="round"/>
<path d="M34.5137 20.332C39.4079 23.9984 46.2292 29.5811 46.8458 43.7631" stroke="#228596" stroke-width="2" stroke-linecap="round" stroke-linejoin="round"/>
<path d="M17.8665 30.8151C17.2501 23.4158 23.4161 12.3168 33.2817 8.61719" stroke="#228596" stroke-width="2" stroke-linecap="round" stroke-linejoin="round"/>
<path d="M35.7469 38.8301C30.32 41.4244 21.5649 44.9962 11.6992 40.6799" stroke="#228596" stroke-width="2" stroke-linecap="round" stroke-linejoin="round"/>
<path fill-rule="evenodd" clip-rule="evenodd" d="M29.9999 8C42.142 8 52 17.858 52 30.0001C52 42.142 42.142 52 29.9999 52C17.858 52 8 42.142 8 30.0001C8 17.858 17.858 8 29.9999 8Z" stroke="#228596" stroke-width="2" stroke-linecap="round" stroke-linejoin="round"/>
<path d="M56.0001 30C56.0001 44.3496 44.3498 55.9999 30 55.9999" stroke="#FCAB2D" stroke-width="2" stroke-linecap="round" stroke-linejoin="round"/>
<path d="M5 25C6 19.5 8.5 15 11.5 12" stroke="#FCAB2D" stroke-width="2" stroke-linecap="round"/>
<path d="M5 36C4.5 33.5 4 31 4.5 28.5" stroke="#FCAB2D" stroke-width="2" stroke-linecap="round"/>
</g>
</svg>
