<svg width="30" height="48" viewBox="0 0 30 48" fill="none" xmlns="http://www.w3.org/2000/svg">
<line x1="5" y1="1" x2="5" y2="5" stroke="#228596" stroke-width="2" stroke-linecap="round"/>
<line x1="9" y1="1" x2="9" y2="5" stroke="#228596" stroke-width="2" stroke-linecap="round"/>
<line x1="13" y1="1" x2="13" y2="5" stroke="#228596" stroke-width="2" stroke-linecap="round"/>
<line x1="17" y1="1" x2="17" y2="5" stroke="#228596" stroke-width="2" stroke-linecap="round"/>
<line x1="21" y1="1" x2="21" y2="5" stroke="#228596" stroke-width="2" stroke-linecap="round"/>
<line x1="25" y1="1" x2="25" y2="5" stroke="#228596" stroke-width="2" stroke-linecap="round"/>
<line x1="5" y1="43" x2="5" y2="47" stroke="#228596" stroke-width="2" stroke-linecap="round"/>
<line x1="9" y1="43" x2="9" y2="47" stroke="#228596" stroke-width="2" stroke-linecap="round"/>
<line x1="13" y1="43" x2="13" y2="47" stroke="#228596" stroke-width="2" stroke-linecap="round"/>
<line x1="17" y1="43" x2="17" y2="47" stroke="#228596" stroke-width="2" stroke-linecap="round"/>
<line x1="21" y1="43" x2="21" y2="47" stroke="#228596" stroke-width="2" stroke-linecap="round"/>
<line x1="25" y1="43" x2="25" y2="47" stroke="#228596" stroke-width="2" stroke-linecap="round"/>
<mask id="mask0" mask-type="alpha" maskUnits="userSpaceOnUse" x="0" y="8" width="30" height="32">
<rect y="8" width="30" height="32" fill="#C4C4C4"/>
</mask>
<g mask="url(#mask0)">
<circle cx="12" cy="12" r="3" stroke="#FCAB2D" stroke-width="2"/>
<circle cx="28" cy="16" r="3" stroke="#FCAB2D" stroke-width="2"/>
<circle cx="22" cy="8" r="3" stroke="#228596" stroke-width="2"/>
<circle cx="8" cy="22" r="3" stroke="#228596" stroke-width="2"/>
<circle cx="20" cy="22" r="3" stroke="#228596" stroke-width="2"/>
<circle cx="14" cy="30" r="3" stroke="#FCAB2D" stroke-width="2"/>
<circle cx="26" cy="34" r="3" stroke="#228596" stroke-width="2"/>
<circle cx="16" cy="40" r="3" stroke="#FCAB2D" stroke-width="2"/>
<circle cx="4" cy="36" r="3" stroke="#228596" stroke-width="2"/>
<circle cx="2" cy="8" r="3" stroke="#FCAB2D" stroke-width="2"/>
</g>
<line x1="1" y1="1" x2="1" y2="47" stroke="#228596" stroke-width="2" stroke-linecap="round"/>
<line x1="29" y1="1" x2="29" y2="47" stroke="#228596" stroke-width="2" stroke-linecap="round"/>
</svg>
