<svg width="60" height="60" viewBox="0 0 60 60" fill="none" xmlns="http://www.w3.org/2000/svg">
<mask id="mask0" mask-type="alpha" maskUnits="userSpaceOnUse" x="0" y="0" width="60" height="60">
<rect width="60" height="60" rx="10" fill="#C4C4C4"/>
</mask>
<g mask="url(#mask0)">
<line x1="21" y1="7" x2="21" y2="11" stroke="#228596" stroke-width="2" stroke-linecap="round"/>
<line x1="25" y1="7" x2="25" y2="11" stroke="#228596" stroke-width="2" stroke-linecap="round"/>
<line x1="29" y1="7" x2="29" y2="11" stroke="#228596" stroke-width="2" stroke-linecap="round"/>
<line x1="33" y1="7" x2="33" y2="11" stroke="#228596" stroke-width="2" stroke-linecap="round"/>
<line x1="37" y1="7" x2="37" y2="11" stroke="#228596" stroke-width="2" stroke-linecap="round"/>
<line x1="41" y1="7" x2="41" y2="11" stroke="#228596" stroke-width="2" stroke-linecap="round"/>
<line x1="21" y1="49" x2="21" y2="53" stroke="#228596" stroke-width="2" stroke-linecap="round"/>
<line x1="25" y1="49" x2="25" y2="53" stroke="#228596" stroke-width="2" stroke-linecap="round"/>
<line x1="29" y1="49" x2="29" y2="53" stroke="#228596" stroke-width="2" stroke-linecap="round"/>
<line x1="33" y1="49" x2="33" y2="53" stroke="#228596" stroke-width="2" stroke-linecap="round"/>
<line x1="37" y1="49" x2="37" y2="53" stroke="#228596" stroke-width="2" stroke-linecap="round"/>
<line x1="41" y1="49" x2="41" y2="53" stroke="#228596" stroke-width="2" stroke-linecap="round"/>
<mask id="mask1" mask-type="alpha" maskUnits="userSpaceOnUse" x="16" y="14" width="30" height="32">
<rect x="16" y="14" width="30" height="32" fill="#C4C4C4"/>
</mask>
<g mask="url(#mask1)">
<circle cx="28" cy="18" r="3" stroke="#FCAB2D" stroke-width="2"/>
<circle cx="44" cy="22" r="3" stroke="#FCAB2D" stroke-width="2"/>
<circle cx="38" cy="14" r="3" stroke="#228596" stroke-width="2"/>
<circle cx="24" cy="28" r="3" stroke="#228596" stroke-width="2"/>
<circle cx="36" cy="28" r="3" stroke="#228596" stroke-width="2"/>
<circle cx="30" cy="36" r="3" stroke="#FCAB2D" stroke-width="2"/>
<circle cx="42" cy="40" r="3" stroke="#228596" stroke-width="2"/>
<circle cx="32" cy="46" r="3" stroke="#FCAB2D" stroke-width="2"/>
<circle cx="20" cy="42" r="3" stroke="#228596" stroke-width="2"/>
<circle cx="18" cy="14" r="3" stroke="#FCAB2D" stroke-width="2"/>
</g>
<line x1="17" y1="7" x2="17" y2="53" stroke="#228596" stroke-width="2" stroke-linecap="round"/>
<line x1="45" y1="7" x2="45" y2="53" stroke="#228596" stroke-width="2" stroke-linecap="round"/>
</g>
</svg>
