<svg width="48" height="46" viewBox="0 0 48 46" fill="none" xmlns="http://www.w3.org/2000/svg">
<rect x="5" y="5" width="38" height="36" rx="4" stroke="#228596" stroke-width="2"/>
<path d="M9 12C9 10.3431 10.3431 9 12 9H36C37.6569 9 39 10.3431 39 12V24C39 25.6569 37.6569 27 36 27H12C10.3431 27 9 25.6569 9 24V12Z" stroke="#228596" stroke-width="2"/>
<path d="M9 41H15V45H9V41Z" stroke="#228596" stroke-width="2"/>
<path d="M33 41H39V45H33V41Z" stroke="#228596" stroke-width="2"/>
<circle cx="12" cy="34" r="3" stroke="#FCAB2D" stroke-width="2"/>
<circle cx="36" cy="34" r="3" stroke="#FCAB2D" stroke-width="2"/>
<path d="M46.5 13.5V8.0192C46.5 4.34058 43.6678 1.28214 40 1V1" stroke="#FCAB2D" stroke-width="2" stroke-linecap="round"/>
<path d="M4.5 43V43C2.42831 42.4081 1 40.5145 1 38.3599V26" stroke="#FCAB2D" stroke-width="2" stroke-linecap="round"/>
<path d="M19 23.5H14.4C13.6268 23.5 13 22.8732 13 22.1V17" stroke="#FCAB2D" stroke-width="2" stroke-linecap="round"/>
</svg>
