<svg width="60" height="60" viewBox="0 0 60 60" fill="none" xmlns="http://www.w3.org/2000/svg">
<mask id="mask0" mask-type="alpha" maskUnits="userSpaceOnUse" x="0" y="0" width="60" height="60">
<rect x="1" y="1" width="58" height="58" rx="9" fill="#C4C4C4" stroke="black" stroke-width="2"/>
</mask>
<g mask="url(#mask0)">
<rect x="11" y="11" width="38" height="36" rx="4" stroke="#228596" stroke-width="2"/>
<path d="M15 18C15 16.3431 16.3431 15 18 15H42C43.6569 15 45 16.3431 45 18V30C45 31.6569 43.6569 33 42 33H18C16.3431 33 15 31.6569 15 30V18Z" stroke="#228596" stroke-width="2"/>
<path d="M15 47H21V51H15V47Z" stroke="#228596" stroke-width="2"/>
<path d="M39 47H45V51H39V47Z" stroke="#228596" stroke-width="2"/>
<circle cx="18" cy="40" r="3" stroke="#FCAB2D" stroke-width="2"/>
<circle cx="42" cy="40" r="3" stroke="#FCAB2D" stroke-width="2"/>
<path d="M52.5 19.5V14.0192C52.5 10.3406 49.6678 7.28214 46 7V7" stroke="#FCAB2D" stroke-width="2" stroke-linecap="round"/>
<path d="M10.5 49V49C8.42831 48.4081 7 46.5145 7 44.3599V32" stroke="#FCAB2D" stroke-width="2" stroke-linecap="round"/>
<path d="M25 29.5H20.4C19.6268 29.5 19 28.8732 19 28.1V23" stroke="#FCAB2D" stroke-width="2" stroke-linecap="round"/>
</g>
</svg>
