<svg width="28" height="28" viewBox="0 0 28 28" fill="none" xmlns="http://www.w3.org/2000/svg">
<circle cx="14" cy="14" r="14" fill="#407DC5"/>
<mask id="mask0" mask-type="alpha" maskUnits="userSpaceOnUse" x="2" y="2" width="24" height="24">
<rect x="2" y="2" width="24" height="24" fill="#C4C4C4"/>
</mask>
<g mask="url(#mask0)">
<path fill-rule="evenodd" clip-rule="evenodd" d="M15.4677 19.1264C15.4677 19.1264 15.7625 19.0935 15.9134 18.9311C16.0516 18.7823 16.0469 18.5014 16.0469 18.5014C16.0469 18.5014 16.0285 17.19 16.6364 16.9963C17.2356 16.8059 18.0049 18.2646 18.8213 18.8255C19.438 19.2496 19.9062 19.1568 19.9062 19.1568L22.0879 19.1264C22.0879 19.1264 23.2286 19.0559 22.6878 18.1574C22.6431 18.0837 22.3723 17.4924 21.0661 16.2778C19.6977 15.0063 19.8814 15.2119 21.5287 13.0123C22.532 11.6728 22.9331 10.855 22.8076 10.5054C22.6886 10.1709 21.9505 10.2597 21.9505 10.2597L19.4948 10.2749C19.4948 10.2749 19.3126 10.2501 19.1776 10.3309C19.0458 10.4102 18.9603 10.595 18.9603 10.595C18.9603 10.595 18.5721 11.6312 18.0536 12.513C16.96 14.3726 16.523 14.471 16.344 14.3558C15.9278 14.0861 16.0317 13.2739 16.0317 12.697C16.0317 10.8943 16.3049 10.1429 15.5004 9.94846C15.2336 9.88364 15.0371 9.84123 14.3541 9.83403C13.4777 9.82523 12.7364 9.83723 12.3162 10.0429C12.0366 10.1797 11.8209 10.4854 11.9527 10.503C12.1148 10.5246 12.4823 10.6022 12.6772 10.8678C12.9289 11.2111 12.9201 11.9809 12.9201 11.9809C12.9201 11.9809 13.0647 14.1029 12.5822 14.3662C12.2515 14.547 11.7977 14.1781 10.8223 12.4906C10.323 11.6264 9.94593 10.671 9.94593 10.671C9.94593 10.671 9.87323 10.4926 9.74302 10.3965C9.58564 10.2805 9.36596 10.2445 9.36596 10.2445L7.03247 10.2597C7.03247 10.2597 6.68177 10.2693 6.55316 10.4222C6.43892 10.5574 6.54437 10.8382 6.54437 10.8382C6.54437 10.8382 8.37137 15.1199 10.4404 17.278C12.3377 19.256 14.4915 19.1264 14.4915 19.1264H15.4677Z" fill="white"/>
</g>
</svg>
