<svg width="30" height="28" viewBox="0 0 30 28" fill="none" xmlns="http://www.w3.org/2000/svg">
<circle cx="5.5" cy="3.5" r="1.5" fill="#FCAB2D"/>
<circle cx="10" cy="1" r="1" fill="#FCAB2D"/>
<circle cx="13.5" cy="5.5" r="1.5" fill="#FCAB2D"/>
<circle cx="18" cy="1" r="1" fill="#FCAB2D"/>
<circle cx="19.5" cy="7.5" r="1.5" fill="#228596"/>
<circle cx="16.5" cy="12.5" r="1.5" fill="#FCAB2D"/>
<circle cx="10" cy="11" r="1" fill="#FCAB2D"/>
<circle cx="7.5" cy="7.5" r="1.5" fill="#228596"/>
<circle cx="2" cy="11" r="1" fill="#228596"/>
<circle cx="7.5" cy="19.5" r="1.5" fill="#FCAB2D"/>
<circle cx="13.5" cy="17.5" r="1.5" fill="#FCAB2D"/>
<circle cx="19.5" cy="19.5" r="1.5" fill="#228596"/>
<circle cx="23.5" cy="13.5" r="1.5" fill="#FCAB2D"/>
<circle cx="27" cy="10" r="1" fill="#228596"/>
<circle cx="23.5" cy="3.5" r="1.5" fill="#FCAB2D"/>
<circle cx="25" cy="20" r="1" fill="#228596"/>
<circle cx="18.5" cy="26.5" r="1.5" fill="#FCAB2D"/>
<circle cx="13" cy="23" r="1" fill="#228596"/>
<circle cx="5.5" cy="25.5" r="1.5" fill="#FCAB2D"/>
<circle cx="1.5" cy="18.5" r="1.5" fill="#FCAB2D"/>
<circle cx="6.5" cy="14.5" r="1.5" fill="#228596"/>
<circle cx="11" cy="27" r="1" fill="#FCAB2D"/>
<circle cx="29" cy="16" r="1" fill="#FCAB2D"/>
</svg>
