<svg width="38" height="38" viewBox="0 0 38 38" fill="none" xmlns="http://www.w3.org/2000/svg">
<mask id="mask0" mask-type="alpha" maskUnits="userSpaceOnUse" x="0" y="0" width="38" height="38">
<rect width="38" height="38" fill="#C4C4C4"/>
</mask>
<g mask="url(#mask0)">
<mask id="path-2-inside-1" fill="white">
<path fill-rule="evenodd" clip-rule="evenodd" d="M13.2368 19L8.51598 20.02C8.16448 20.0959 7.88083 20.3548 7.7731 20.6979L4.55846 30.9357C4.31945 31.6969 5.02429 32.4177 5.79063 32.1959L11.458 30.555C11.7355 30.4747 12.0342 30.5183 12.2771 30.6746L18.4589 34.6519C18.7885 34.8639 19.2115 34.8639 19.5411 34.6519L25.7229 30.6746C25.9658 30.5183 26.2645 30.4747 26.542 30.555L32.2094 32.1959C32.9757 32.4177 33.6805 31.6969 33.4415 30.9357L30.2298 20.7071C30.1205 20.3591 29.8304 20.0982 29.4728 20.0263L24.3684 19"/>
</mask>
<path d="M30.2298 20.7071L28.3217 21.3062L30.2298 20.7071ZM29.4728 20.0263L29.0786 21.987L29.4728 20.0263ZM32.2094 32.1959L31.6532 34.117L32.2094 32.1959ZM26.542 30.555L27.0982 28.6339L26.542 30.555ZM18.4589 34.6519L19.5411 32.9699L18.4589 34.6519ZM19.5411 34.6519L18.4589 32.9699L19.5411 34.6519ZM11.458 30.555L12.0142 32.4761L11.458 30.555ZM12.2771 30.6746L11.195 32.3566L12.2771 30.6746ZM5.79063 32.1959L6.34684 34.117L5.79063 32.1959ZM8.51598 20.02L8.0936 18.0651L8.51598 20.02ZM12.8145 17.0451L8.0936 18.0651L8.93836 21.9749L13.6592 20.9549L12.8145 17.0451ZM5.86495 20.0987L2.65031 30.3366L6.4666 31.5349L9.68124 21.297L5.86495 20.0987ZM6.34684 34.117L12.0142 32.4761L10.9018 28.6339L5.23443 30.2748L6.34684 34.117ZM11.195 32.3566L17.3768 36.3338L19.5411 32.9699L13.3593 28.9927L11.195 32.3566ZM20.6232 36.3338L26.805 32.3566L24.6407 28.9927L18.4589 32.9699L20.6232 36.3338ZM25.9858 32.4761L31.6532 34.117L32.7656 30.2748L27.0982 28.6339L25.9858 32.4761ZM35.3497 30.3366L32.1379 20.1079L28.3217 21.3062L31.5334 31.5349L35.3497 30.3366ZM29.8671 18.0655L24.7626 17.0392L23.9742 20.9608L29.0786 21.987L29.8671 18.0655ZM32.1379 20.1079C31.8101 19.0639 30.9399 18.2812 29.8671 18.0655L29.0786 21.987C28.721 21.9151 28.4309 21.6542 28.3217 21.3062L32.1379 20.1079ZM31.6532 34.117C33.9522 34.7826 36.0667 32.6201 35.3497 30.3366L31.5334 31.5349C31.2944 30.7737 31.9992 30.0529 32.7656 30.2748L31.6532 34.117ZM26.805 32.3566C26.562 32.5129 26.2633 32.5565 25.9858 32.4761L27.0982 28.6339C26.2657 28.3929 25.3696 28.5237 24.6407 28.9927L26.805 32.3566ZM17.3768 36.3338C18.3654 36.9699 19.6345 36.9699 20.6232 36.3338L18.4589 32.9699C18.7885 32.7579 19.2115 32.7579 19.5411 32.9699L17.3768 36.3338ZM12.0142 32.4761C11.7367 32.5565 11.438 32.5129 11.195 32.3566L13.3593 28.9927C12.6304 28.5237 11.7343 28.3929 10.9018 28.6339L12.0142 32.4761ZM2.65031 30.3366C1.93329 32.6201 4.04781 34.7826 6.34684 34.117L5.23443 30.2748C6.00077 30.0529 6.70561 30.7737 6.4666 31.5349L2.65031 30.3366ZM8.0936 18.0651C7.0391 18.2929 6.18814 19.0694 5.86495 20.0987L9.68124 21.297C9.57351 21.6401 9.28986 21.8989 8.93836 21.9749L8.0936 18.0651Z" fill="#CDCDCD" mask="url(#path-2-inside-1)"/>
<path d="M27 11.9032C27 13.4082 26.5023 15.0532 25.6943 16.716C24.8901 18.3711 23.8077 19.9849 22.7081 21.4107C21.6107 22.8337 20.5108 24.0509 19.6844 24.9127C19.4262 25.182 19.1952 25.4161 19 25.6103C18.8048 25.4161 18.5738 25.182 18.3156 24.9127C17.4892 24.0509 16.3893 22.8337 15.2919 21.4107C14.1923 19.9849 13.1099 18.3711 12.3057 16.716C11.4977 15.0532 11 13.4082 11 11.9032C11 7.08319 14.5335 4 19 4C23.4665 4 27 7.08319 27 11.9032Z" stroke="#CDCDCD" stroke-width="2"/>
<circle cx="19" cy="12" r="3" stroke="#CDCDCD" stroke-width="2"/>
</g>
</svg>
