<svg width="60" height="60" viewBox="0 0 60 60" fill="none" xmlns="http://www.w3.org/2000/svg">
<mask id="mask0" mask-type="alpha" maskUnits="userSpaceOnUse" x="0" y="0" width="60" height="60">
<rect x="0.5" y="0.5" width="59" height="59" rx="9.5" fill="#C4C4C4" stroke="black"/>
</mask>
<g mask="url(#mask0)">
<path d="M10.6 32.6765L13.3764 30.3305C13.8022 29.9707 13.8516 29.3322 13.4862 28.9112L9.51657 24.3372C9.15276 23.918 8.51714 23.8753 8.10053 24.2421L6.28393 25.8414C5.88096 26.1962 5.83006 26.8059 6.16862 27.2226L8 29.4766L11.25 33.4766L15.7602 39.0276C17.0059 40.5607 18.9263 41.3825 20.8954 41.2249L40.7479 39.6368C42.0077 39.536 43.2411 40.0366 44.0744 40.9869L52.3028 50.371" stroke="white" stroke-width="2" stroke-linecap="round"/>
<path d="M5.0625 21.9766L5.99303 21.1553C7.65246 19.6909 10.1857 19.8523 11.6458 21.5155L14.7939 25.1016" stroke="#FCAB2D" stroke-width="2" stroke-linecap="round"/>
<path d="M46.0004 48.5012L41.8841 43.8068C41.4686 43.3329 40.8541 43.0826 40.2258 43.1313L38.1681 43.2908" stroke="#FCAB2D" stroke-width="2" stroke-linecap="round"/>
<path d="M11.1504 50.3711L20.8556 35.1393C21.0392 34.8511 21.3573 34.6766 21.699 34.6766L30.6698 34.6766C30.9735 34.6766 31.2609 34.8147 31.4506 35.0519L35.1504 39.6766" stroke="white" stroke-width="2" stroke-linecap="round"/>
<path d="M9.15039 47.3711L11.6504 43.4475L12.9004 41.4857" stroke="#FCAB2D" stroke-width="2" stroke-linecap="round"/>
<circle cx="43.5566" cy="17.5566" r="6" stroke="#FCAB2D" stroke-width="2"/>
<path fill-rule="evenodd" clip-rule="evenodd" d="M43.5566 6.55664C44.1089 6.55664 44.5566 7.00436 44.5566 7.55664V11.5566C44.5566 12.1089 44.1089 12.5566 43.5566 12.5566C43.0044 12.5566 42.5566 12.1089 42.5566 11.5566V7.55664C42.5566 7.00436 43.0044 6.55664 43.5566 6.55664Z" fill="#FCAB2D"/>
<path fill-rule="evenodd" clip-rule="evenodd" d="M43.5566 22.5566C44.1089 22.5566 44.5566 23.0044 44.5566 23.5566V27.5566C44.5566 28.1089 44.1089 28.5566 43.5566 28.5566C43.0044 28.5566 42.5566 28.1089 42.5566 27.5566V23.5566C42.5566 23.0044 43.0044 22.5566 43.5566 22.5566Z" fill="#FCAB2D"/>
<path fill-rule="evenodd" clip-rule="evenodd" d="M32.5566 17.5566C32.5566 17.0044 33.0044 16.5566 33.5566 16.5566H37.5566C38.1089 16.5566 38.5566 17.0044 38.5566 17.5566C38.5566 18.1089 38.1089 18.5566 37.5566 18.5566H33.5566C33.0044 18.5566 32.5566 18.1089 32.5566 17.5566Z" fill="#FCAB2D"/>
<path fill-rule="evenodd" clip-rule="evenodd" d="M48.5566 17.5566C48.5566 17.0044 49.0044 16.5566 49.5566 16.5566H53.5566C54.1089 16.5566 54.5566 17.0044 54.5566 17.5566C54.5566 18.1089 54.1089 18.5566 53.5566 18.5566H49.5566C49.0044 18.5566 48.5566 18.1089 48.5566 17.5566Z" fill="#FCAB2D"/>
<path fill-rule="evenodd" clip-rule="evenodd" d="M35.7773 9.77937C36.1678 9.38885 36.801 9.38885 37.1915 9.77937L40.0199 12.6078C40.4104 12.9983 40.4104 13.6315 40.0199 14.022C39.6294 14.4125 38.9962 14.4125 38.6057 14.022L35.7773 11.1936C35.3867 10.8031 35.3867 10.1699 35.7773 9.77937Z" fill="#FCAB2D"/>
<path fill-rule="evenodd" clip-rule="evenodd" d="M47.0917 21.0938C47.4822 20.7033 48.1154 20.7033 48.5059 21.0938L51.3344 23.9223C51.7249 24.3128 51.7249 24.9459 51.3344 25.3365C50.9438 25.727 50.3107 25.727 49.9201 25.3365L47.0917 22.508C46.7012 22.1175 46.7012 21.4843 47.0917 21.0938Z" fill="#FCAB2D"/>
<path fill-rule="evenodd" clip-rule="evenodd" d="M35.7764 25.336C35.3859 24.9455 35.3859 24.3123 35.7764 23.9218L38.6049 21.0934C38.9954 20.7028 39.6286 20.7028 40.0191 21.0934C40.4096 21.4839 40.4096 22.1171 40.0191 22.5076L37.1907 25.336C36.8001 25.7265 36.167 25.7265 35.7764 25.336Z" fill="#FCAB2D"/>
<path fill-rule="evenodd" clip-rule="evenodd" d="M47.0909 14.0216C46.7004 13.631 46.7004 12.9979 47.0909 12.6073L49.9193 9.77892C50.3098 9.3884 50.943 9.3884 51.3335 9.77892C51.7241 10.1694 51.7241 10.8026 51.3335 11.1931L48.5051 14.0216C48.1146 14.4121 47.4814 14.4121 47.0909 14.0216Z" fill="#FCAB2D"/>
</g>
</svg>
