<svg width="60" height="56" viewBox="0 0 60 56" fill="none" xmlns="http://www.w3.org/2000/svg">
<circle cx="45.7188" cy="13.5566" r="6" stroke="#FCAB2D" stroke-width="2"/>
<path fill-rule="evenodd" clip-rule="evenodd" d="M45.7188 2.55664C46.271 2.55664 46.7188 3.00436 46.7188 3.55664V7.55664C46.7188 8.10893 46.271 8.55664 45.7188 8.55664C45.1665 8.55664 44.7188 8.10893 44.7188 7.55664V3.55664C44.7188 3.00436 45.1665 2.55664 45.7188 2.55664Z" fill="#FCAB2D"/>
<path fill-rule="evenodd" clip-rule="evenodd" d="M45.7188 18.5566C46.271 18.5566 46.7188 19.0044 46.7188 19.5566V23.5566C46.7188 24.1089 46.271 24.5566 45.7188 24.5566C45.1665 24.5566 44.7188 24.1089 44.7188 23.5566V19.5566C44.7188 19.0044 45.1665 18.5566 45.7188 18.5566Z" fill="#FCAB2D"/>
<path fill-rule="evenodd" clip-rule="evenodd" d="M34.7188 13.5566C34.7188 13.0044 35.1665 12.5566 35.7188 12.5566H39.7188C40.271 12.5566 40.7188 13.0044 40.7188 13.5566C40.7188 14.1089 40.271 14.5566 39.7188 14.5566H35.7188C35.1665 14.5566 34.7188 14.1089 34.7188 13.5566Z" fill="#FCAB2D"/>
<path fill-rule="evenodd" clip-rule="evenodd" d="M50.7188 13.5566C50.7188 13.0044 51.1665 12.5566 51.7188 12.5566H55.7188C56.271 12.5566 56.7188 13.0044 56.7188 13.5566C56.7188 14.1089 56.271 14.5566 55.7188 14.5566H51.7188C51.1665 14.5566 50.7188 14.1089 50.7188 13.5566Z" fill="#FCAB2D"/>
<path fill-rule="evenodd" clip-rule="evenodd" d="M37.9394 5.77937C38.3299 5.38885 38.9631 5.38885 39.3536 5.77937L42.182 8.6078C42.5725 8.99832 42.5725 9.63149 42.182 10.022C41.7915 10.4125 41.1583 10.4125 40.7678 10.022L37.9394 7.19359C37.5489 6.80306 37.5489 6.1699 37.9394 5.77937Z" fill="#FCAB2D"/>
<path fill-rule="evenodd" clip-rule="evenodd" d="M49.2538 17.0938C49.6444 16.7033 50.2775 16.7033 50.668 17.0938L53.4965 19.9223C53.887 20.3128 53.887 20.9459 53.4965 21.3365C53.1059 21.727 52.4728 21.727 52.0823 21.3365L49.2538 18.508C48.8633 18.1175 48.8633 17.4843 49.2538 17.0938Z" fill="#FCAB2D"/>
<path fill-rule="evenodd" clip-rule="evenodd" d="M37.9386 21.336C37.548 20.9455 37.548 20.3123 37.9386 19.9218L40.767 17.0934C41.1575 16.7028 41.7907 16.7028 42.1812 17.0934C42.5717 17.4839 42.5717 18.1171 42.1812 18.5076L39.3528 21.336C38.9622 21.7265 38.3291 21.7265 37.9386 21.336Z" fill="#FCAB2D"/>
<path fill-rule="evenodd" clip-rule="evenodd" d="M49.253 10.0216C48.8625 9.63104 48.8625 8.99787 49.253 8.60735L52.0814 5.77892C52.472 5.3884 53.1051 5.3884 53.4956 5.77892C53.8862 6.16944 53.8862 6.80261 53.4956 7.19313L50.6672 10.0216C50.2767 10.4121 49.6435 10.4121 49.253 10.0216Z" fill="#FCAB2D"/>
<path d="M2.76371 29.9219C3.10794 23.6139 8.30096 17.028 15.6814 15.3829C23.0619 13.7377 30.5604 17.4946 33.5511 23.0592C34.066 24.0172 34.2308 24.9506 34.2765 25.5725L3.17437 32.5054C2.95167 31.9229 2.70445 31.0079 2.76371 29.9219Z" stroke="white" stroke-width="2"/>
<path d="M10.4486 28.0892C10.2213 24.9265 10.677 21.8793 11.6517 19.5473C12.6373 17.1892 14.0658 15.7429 15.6797 15.3832C17.2937 15.0234 19.2011 15.7261 21.0949 17.4424C22.9678 19.1397 24.6746 21.7048 25.8119 24.6646C26.2058 25.6896 26.4039 26.6557 26.5016 27.3145L10.9497 30.7811C10.7584 30.1432 10.5274 29.1844 10.4486 28.0892Z" stroke="white" stroke-width="2"/>
<line x1="18.7268" y1="29.0475" x2="23.5133" y2="50.5205" stroke="white" stroke-width="2" stroke-linecap="round"/>
<line x1="14.8108" y1="11.4792" x2="15.6811" y2="15.3834" stroke="white" stroke-width="2" stroke-linecap="round"/>
<path d="M8.16211 54C8.16211 54 21.7985 49.16 31.7985 50.128C41.7985 51.096 48.1621 54 48.1621 54" stroke="white" stroke-width="2" stroke-linecap="round"/>
<path d="M44.5 49C44.5 49 39 46.5 29.5 46.5" stroke="#FCAB2D" stroke-width="2" stroke-linecap="round"/>
</svg>
