<svg width="60" height="60" viewBox="0 0 60 60" fill="none" xmlns="http://www.w3.org/2000/svg">
<mask id="mask0" mask-type="alpha" maskUnits="userSpaceOnUse" x="0" y="0" width="60" height="60">
<rect width="60" height="60" rx="10" fill="#C4C4C4"/>
</mask>
<g mask="url(#mask0)">
<path d="M19.2695 38H25.2695V52H19.2695V38Z" stroke="white" stroke-width="2"/>
<path d="M15.2358 17.2592C16.0835 14.101 18.3347 11.5411 21.2923 9.75578C24.2517 7.96944 27.8569 7 31.27 7C34.6831 7 38.2882 7.96944 41.2476 9.75578C44.2052 11.5411 46.4564 14.101 47.3042 17.2592C47.3859 17.5636 47.4408 17.8071 47.4769 18H15.063C15.0992 17.8071 15.1541 17.5636 15.2358 17.2592Z" stroke="white" stroke-width="2"/>
<path d="M49.27 13C46.5 7.5 40 3.5 33.27 3" stroke="#FCAB2D" stroke-width="2" stroke-linecap="round"/>
<rect x="19.2695" y="18" width="24" height="16" stroke="white" stroke-width="2"/>
<mask id="path-6-inside-1" fill="white">
<rect x="16.2695" y="33" width="30" height="6" rx="1"/>
</mask>
<rect x="16.2695" y="33" width="30" height="6" rx="1" stroke="white" stroke-width="4" mask="url(#path-6-inside-1)"/>
<path d="M35.2695 28C35.2695 30.2091 33.4787 32 31.2695 32C29.0604 32 27.2695 30.2091 27.2695 28C27.2695 27.4435 27.3818 27.1051 27.5139 26.8908C27.642 26.6829 27.836 26.5144 28.1424 26.3773C28.8228 26.0729 29.859 26 31.2695 26C32.68 26 33.7163 26.0729 34.3967 26.3773C34.7031 26.5144 34.8971 26.6829 35.0252 26.8908C35.1573 27.1051 35.2695 27.4435 35.2695 28Z" stroke="#FCAB2D" stroke-width="2"/>
<path d="M31.2695 26L32.9931 22.5528C33.1625 22.214 33.5088 22 33.8876 22L38.2695 22" stroke="#FCAB2D" stroke-width="2" stroke-linecap="round"/>
<path d="M37.2695 38H43.2695V52H37.2695V38Z" stroke="white" stroke-width="2"/>
<path d="M15 46.5V53C15 54.6569 16.3431 56 18 56H23" stroke="#FCAB2D" stroke-width="2" stroke-linecap="round"/>
<path d="M31.2695 38H37.2695V52H31.2695V38Z" stroke="white" stroke-width="2"/>
<path d="M25.2695 38H31.2695V52H25.2695V38Z" stroke="white" stroke-width="2"/>
</g>
</svg>
