<svg width="40" height="40" viewBox="0 0 40 40" fill="none" xmlns="http://www.w3.org/2000/svg">
<circle cx="20" cy="20" r="20" fill="#FCAB2D"/>
<path d="M35 18.4478C35 24.6301 25.99 33 19.4444 33C16.1111 33 14.5799 30.8406 12.037 28.8955C8.53181 26.2143 5 23.1502 5 19.5672C5 12.2772 13.6396 8 20.1852 8C26.7308 8 35 12.2655 35 18.4478Z" fill="white"/>
<path d="M31.4998 16.5007C23.4999 8.5 8.99984 12.5 3.9999 20.4992" stroke="#FCAB2D" stroke-linecap="round"/>
<path d="M33.0003 25.4966C28.0003 15.4991 15.5002 15.5 10.1533 21.182" stroke="#FCAB2D" stroke-linecap="round"/>
<path d="M10.5005 28.4961C14.7795 23.129 22.5723 21.1469 26.6845 24.6938" stroke="#FCAB2D" stroke-linecap="round"/>
<path d="M27.0003 30.4974C24.5003 28.497 20.5003 26.9975 17.735 28.9201" stroke="#FCAB2D" stroke-linecap="round"/>
</svg>
