<svg width="60" height="60" viewBox="0 0 60 60" fill="none" xmlns="http://www.w3.org/2000/svg">
<mask id="mask0" mask-type="alpha" maskUnits="userSpaceOnUse" x="0" y="0" width="60" height="60">
<rect width="60" height="60" rx="10" fill="#C4C4C4"/>
</mask>
<g mask="url(#mask0)">
<path d="M31.7372 37.3243L31 36.5201L30.2628 37.3243L25.9519 42.0272C25.3836 42.6471 24.5813 43 23.7404 43H22.0554C17.979 43 14.5545 39.9349 14.1043 35.8835L13.7342 32.5522C13.4051 29.5903 15.7235 27 18.7036 27H43.2964C46.2765 27 48.5949 29.5903 48.2658 32.5522L47.8957 35.8835C47.4455 39.9349 44.021 43 39.9446 43H38.2596C37.4187 43 36.6164 42.6471 36.0481 42.0272L31.7372 37.3243Z" stroke="white" stroke-width="2"/>
<path d="M17.5 33V34.4773C17.5 37.443 20.0465 39.7685 23 39.5V39.5" stroke="#FCAB2D" stroke-width="2" stroke-linecap="round"/>
<path d="M48.5 9L52.6185 22.4788C53.5344 25.4763 54 28.5932 54 31.7276V43C54 49.0751 49.0751 54 43 54H37C34.2386 54 32 51.7614 32 49V49" stroke="white" stroke-width="2" stroke-linecap="round"/>
<path d="M29 47L32 49L35 47" stroke="white" stroke-width="2" stroke-linecap="round"/>
<path d="M43.5004 49.5006V49.5006C46.4166 49.5006 48.9366 47.4635 49.5478 44.612L50.0004 42.5006" stroke="#FCAB2D" stroke-width="2" stroke-linecap="round"/>
<path d="M46.5 15.9997L44.5463 9.48597C43.971 7.568 45.0749 5.54991 47.0003 4.99975V4.99975" stroke="#FCAB2D" stroke-width="2" stroke-linecap="round"/>
<circle cx="12.5576" cy="11.5566" r="6" stroke="#FCAB2D" stroke-width="2"/>
<path fill-rule="evenodd" clip-rule="evenodd" d="M12.5576 0.556641C13.1099 0.556641 13.5576 1.00436 13.5576 1.55664V5.55664C13.5576 6.10893 13.1099 6.55664 12.5576 6.55664C12.0053 6.55664 11.5576 6.10893 11.5576 5.55664V1.55664C11.5576 1.00436 12.0053 0.556641 12.5576 0.556641Z" fill="#FCAB2D"/>
<path fill-rule="evenodd" clip-rule="evenodd" d="M12.5576 16.5566C13.1099 16.5566 13.5576 17.0044 13.5576 17.5566V21.5566C13.5576 22.1089 13.1099 22.5566 12.5576 22.5566C12.0053 22.5566 11.5576 22.1089 11.5576 21.5566V17.5566C11.5576 17.0044 12.0053 16.5566 12.5576 16.5566Z" fill="#FCAB2D"/>
<path fill-rule="evenodd" clip-rule="evenodd" d="M1.55762 11.5566C1.55762 11.0044 2.00533 10.5566 2.55762 10.5566H6.55762C7.1099 10.5566 7.55762 11.0044 7.55762 11.5566C7.55762 12.1089 7.1099 12.5566 6.55762 12.5566H2.55762C2.00533 12.5566 1.55762 12.1089 1.55762 11.5566Z" fill="#FCAB2D"/>
<path fill-rule="evenodd" clip-rule="evenodd" d="M17.5576 11.5566C17.5576 11.0044 18.0053 10.5566 18.5576 10.5566H22.5576C23.1099 10.5566 23.5576 11.0044 23.5576 11.5566C23.5576 12.1089 23.1099 12.5566 22.5576 12.5566H18.5576C18.0053 12.5566 17.5576 12.1089 17.5576 11.5566Z" fill="#FCAB2D"/>
<path fill-rule="evenodd" clip-rule="evenodd" d="M4.77824 3.77937C5.16877 3.38885 5.80193 3.38885 6.19246 3.77937L9.02089 6.6078C9.41141 6.99832 9.41141 7.63149 9.02089 8.02201C8.63036 8.41254 7.9972 8.41254 7.60667 8.02201L4.77824 5.19359C4.38772 4.80306 4.38772 4.1699 4.77824 3.77937Z" fill="#FCAB2D"/>
<path fill-rule="evenodd" clip-rule="evenodd" d="M16.0927 15.0938C16.4832 14.7033 17.1164 14.7033 17.5069 15.0938L20.3353 17.9223C20.7259 18.3128 20.7259 18.9459 20.3353 19.3365C19.9448 19.727 19.3116 19.727 18.9211 19.3365L16.0927 16.508C15.7022 16.1175 15.7022 15.4843 16.0927 15.0938Z" fill="#FCAB2D"/>
<path fill-rule="evenodd" clip-rule="evenodd" d="M4.77742 19.336C4.3869 18.9455 4.3869 18.3123 4.77742 17.9218L7.60585 15.0934C7.99637 14.7028 8.62954 14.7028 9.02006 15.0934C9.41058 15.4839 9.41058 16.1171 9.02006 16.5076L6.19163 19.336C5.80111 19.7265 5.16794 19.7265 4.77742 19.336Z" fill="#FCAB2D"/>
<path fill-rule="evenodd" clip-rule="evenodd" d="M16.0919 8.02156C15.7013 7.63104 15.7013 6.99787 16.0919 6.60735L18.9203 3.77892C19.3108 3.3884 19.944 3.3884 20.3345 3.77892C20.725 4.16944 20.725 4.80261 20.3345 5.19313L17.5061 8.02156C17.1156 8.41208 16.4824 8.41208 16.0919 8.02156Z" fill="#FCAB2D"/>
</g>
</svg>
