<svg width="40" height="40" viewBox="0 0 40 40" fill="none" xmlns="http://www.w3.org/2000/svg">
<circle cx="20" cy="20" r="20" fill="#FCAB2D"/>
<circle cx="10.5" cy="10.5" r="1.5" fill="white"/>
<circle cx="16" cy="6" r="1" fill="white"/>
<circle cx="19.5" cy="12.5" r="1.5" fill="white"/>
<circle cx="24" cy="8" r="1" fill="white"/>
<circle cx="25.5" cy="14.5" r="1.5" fill="white"/>
<circle cx="22.5" cy="19.5" r="1.5" fill="white"/>
<circle cx="16" cy="18" r="1" fill="white"/>
<circle cx="13.5" cy="14.5" r="1.5" fill="white"/>
<circle cx="8" cy="18" r="1" fill="white"/>
<circle cx="13.5" cy="26.5" r="1.5" fill="white"/>
<circle cx="19.5" cy="24.5" r="1.5" fill="white"/>
<circle cx="25.5" cy="26.5" r="1.5" fill="white"/>
<circle cx="29.5" cy="20.5" r="1.5" fill="white"/>
<circle cx="33" cy="17" r="1" fill="white"/>
<circle cx="31.5" cy="10.5" r="1.5" fill="white"/>
<circle cx="31" cy="27" r="1" fill="white"/>
<circle cx="24.5" cy="33.5" r="1.5" fill="white"/>
<circle cx="19" cy="30" r="1" fill="white"/>
<circle cx="11.5" cy="32.5" r="1.5" fill="white"/>
<circle cx="7.5" cy="25.5" r="1.5" fill="white"/>
<circle cx="12.5" cy="21.5" r="1.5" fill="white"/>
<circle cx="17" cy="34" r="1" fill="white"/>
<circle cx="35" cy="23" r="1" fill="white"/>
</svg>
