<svg width="40" height="40" viewBox="0 0 40 40" fill="none" xmlns="http://www.w3.org/2000/svg">
<circle cx="20" cy="20" r="20" fill="#FCAB2D"/>
<path d="M24 7C24 8.33333 21.8462 9 20 9C18.1538 9 16 8.33333 16 7C16 5.66667 18.1538 5 20 5C21.8462 5 24 5.66667 24 7Z" fill="white"/>
<path d="M22 11C22 12.3333 19.3077 13 17 13C14.6923 13 12 12.3333 12 11C12 9.66667 14.6923 9 17 9C19.3077 9 22 9.66667 22 11Z" fill="white"/>
<path d="M26 16C26 18 22.7692 19 20 19C17.2308 19 14 18 14 16C14 14 17.2308 13 20 13C22.7692 13 26 14 26 16Z" fill="white"/>
<path d="M29 22.5C29 24.8333 25.5 26 22.5 26C19.5 26 16 24.8333 16 22.5C16 20.1667 19.5 19 22.5 19C25.5 19 29 20.1667 29 22.5Z" fill="white"/>
<path d="M28 30.5C28 32.9231 25.0909 35 20 35C14.9091 35 12 32.9231 12 30.5C12 28.0769 14.9091 26 20 26C25.0909 26 28 28.0769 28 30.5Z" fill="white"/>
</svg>
