<svg width="43" height="40" viewBox="0 0 43 40" fill="none" xmlns="http://www.w3.org/2000/svg">
<path d="M10.8619 21.673V3.97832C10.8619 2.33344 9.52847 1 7.88359 1V1C6.23871 1 4.90527 2.33344 4.90527 3.97831V21.673" stroke="#FCAB2D" stroke-width="2" stroke-linecap="round"/>
<circle cx="7.78994" cy="31.4599" r="2.81729" stroke="#FCAB2D" stroke-width="2"/>
<circle cx="7.70858" cy="31.484" r="6.70858" stroke="#FCAB2D" stroke-width="2"/>
<path d="M21.0667 10.7325C21.0667 8.85016 22.6113 7.32422 24.5166 7.32422C26.422 7.32422 27.9665 8.85016 27.9665 10.7325C27.9665 13.9087 24.5166 14.1408 24.5166 14.1408H14.8574" stroke="#228596" stroke-width="2" stroke-linecap="round"/>
<path d="M23.1894 25.9616C23.1894 28.371 25.1135 30.3242 27.4869 30.3242C29.8604 30.3242 31.7845 28.371 31.7845 25.9616C31.7845 22.0054 27.4869 21.599 27.4869 21.599H15.2695" stroke="#228596" stroke-width="2" stroke-linecap="round"/>
<path d="M31.4202 12.6412C31.4202 9.70469 33.7886 7.32422 36.7101 7.32422C39.6316 7.32422 42 9.70469 42 12.6412C42 15.1816 40.3887 17.1974 37.5 17.6816H14.5" stroke="#228596" stroke-width="2" stroke-linecap="round"/>
</svg>
