<svg width="62" height="62" viewBox="0 0 62 62" fill="none" xmlns="http://www.w3.org/2000/svg">
<g filter="url(#filter0_d)">
<path d="M2 27C2 13.1929 13.1929 2 27 2C40.8071 2 52 13.1929 52 27C52 40.8071 40.8071 52 27 52C13.1929 52 2 40.8071 2 27Z" fill="#228596"/>
</g>
<path d="M12.608 31.672L13.664 30.088C13.984 30.4187 14.3733 30.696 14.832 30.92C15.3013 31.1333 15.776 31.24 16.256 31.24C16.8427 31.24 17.328 31.08 17.712 30.76C18.096 30.44 18.288 30.0347 18.288 29.544C18.288 28.968 18.0587 28.5307 17.6 28.232C17.152 27.9333 16.5707 27.784 15.856 27.784H15.072L14.624 26.728L16.704 24.264C16.832 24.104 16.96 23.9547 17.088 23.816C17.2267 23.6667 17.3333 23.56 17.408 23.496L17.52 23.4V23.368C17.2853 23.4 16.9493 23.416 16.512 23.416H13.12V21.64H20.048V22.936L17.28 26.152C18.1333 26.2693 18.8587 26.6213 19.456 27.208C20.064 27.784 20.368 28.536 20.368 29.464C20.368 30.488 20.0053 31.368 19.28 32.104C18.5547 32.8293 17.584 33.192 16.368 33.192C15.6747 33.192 14.992 33.064 14.32 32.808C13.6587 32.5413 13.088 32.1627 12.608 31.672ZM22.0039 27.816C22.0039 27.208 22.0679 26.6053 22.1959 26.008C22.3345 25.4107 22.5479 24.84 22.8359 24.296C23.1239 23.7413 23.4652 23.256 23.8599 22.84C24.2652 22.4133 24.7559 22.0773 25.3319 21.832C25.9185 21.576 26.5532 21.448 27.2359 21.448C28.1212 21.448 28.8999 21.608 29.5719 21.928L28.9639 23.704C28.5372 23.4693 27.9985 23.352 27.3479 23.352C26.5159 23.352 25.8439 23.6453 25.3319 24.232C24.8199 24.8187 24.4892 25.5387 24.3399 26.392H24.3719C24.5639 26.1573 24.8625 25.9653 25.2679 25.816C25.6732 25.6667 26.0839 25.592 26.4999 25.592C27.5879 25.592 28.4625 25.96 29.1239 26.696C29.7959 27.432 30.1319 28.3333 30.1319 29.4C30.1319 30.4667 29.7852 31.368 29.0919 32.104C28.3985 32.8293 27.5025 33.192 26.4039 33.192C25.1665 33.192 24.1212 32.7067 23.2679 31.736C22.4252 30.7653 22.0039 29.4587 22.0039 27.816ZM26.4199 31.304C26.9212 31.304 27.3265 31.1227 27.6359 30.76C27.9452 30.3973 28.0999 29.944 28.0999 29.4C28.0999 28.792 27.9132 28.2907 27.5399 27.896C27.1772 27.4907 26.6705 27.288 26.0199 27.288C25.4972 27.288 25.0545 27.4053 24.6919 27.64C24.3292 27.864 24.1479 28.1733 24.1479 28.568C24.1479 29.2293 24.3719 29.8533 24.8199 30.44C25.2679 31.016 25.8012 31.304 26.4199 31.304ZM37.7881 32.744C37.2441 33.0427 36.5988 33.192 35.8521 33.192C35.1055 33.192 34.4548 33.0427 33.9001 32.744C33.3561 32.4453 32.9295 32.0187 32.6201 31.464C32.3108 30.9093 32.0815 30.2907 31.9321 29.608C31.7935 28.9253 31.7241 28.1573 31.7241 27.304C31.7241 26.4507 31.7935 25.6827 31.9321 25C32.0815 24.3173 32.3108 23.704 32.6201 23.16C32.9295 22.616 33.3561 22.1947 33.9001 21.896C34.4441 21.5973 35.0948 21.448 35.8521 21.448C38.5935 21.448 39.9641 23.4 39.9641 27.304C39.9641 28.1573 39.8895 28.9253 39.7401 29.608C39.6015 30.2907 39.3775 30.9093 39.0681 31.464C38.7695 32.0187 38.3428 32.4453 37.7881 32.744ZM33.8521 27.304C33.8521 29.9707 34.5188 31.304 35.8521 31.304C37.1855 31.304 37.8521 29.9707 37.8521 27.304C37.8521 24.6693 37.1855 23.352 35.8521 23.352C34.5188 23.352 33.8521 24.6693 33.8521 27.304Z" fill="white"/>
<circle cx="41" cy="19" r="1" stroke="#FF8C00" stroke-width="2"/>
<defs>
<filter id="filter0_d" x="0" y="0" width="62" height="62" filterUnits="userSpaceOnUse" color-interpolation-filters="sRGB">
<feFlood flood-opacity="0" result="BackgroundImageFix"/>
<feColorMatrix in="SourceAlpha" type="matrix" values="0 0 0 0 0 0 0 0 0 0 0 0 0 0 0 0 0 0 127 0"/>
<feOffset dx="4" dy="4"/>
<feGaussianBlur stdDeviation="3"/>
<feColorMatrix type="matrix" values="0 0 0 0 0 0 0 0 0 0 0 0 0 0 0 0 0 0 0.1 0"/>
<feBlend mode="normal" in2="BackgroundImageFix" result="effect1_dropShadow"/>
<feBlend mode="normal" in="SourceGraphic" in2="effect1_dropShadow" result="shape"/>
</filter>
</defs>
</svg>
