<svg width="27" height="33" viewBox="0 0 27 33" fill="none" xmlns="http://www.w3.org/2000/svg">
<path d="M0 4C0 1.79086 1.79086 0 4 0H23C25.2091 0 27 1.79086 27 4V23C27 25.2091 25.2091 27 23 27H16.443C16.0262 27 15.653 27.2586 15.5067 27.6489L13.5 33L11.4933 27.6489C11.347 27.2586 10.9738 27 10.557 27H4C1.79086 27 0 25.2091 0 23V4Z" fill="#115C91"/>
<path d="M8.144 19L12.626 6.22H15.074L19.556 19H17.18L16.082 15.724H11.6L10.52 19H8.144ZM12.176 13.834H15.506L14.372 10.414L13.868 8.434H13.832C13.64 9.274 13.472 9.934 13.328 10.414L12.176 13.834Z" fill="white"/>
</svg>
