<svg width="18" height="22" viewBox="0 0 18 22" fill="none" xmlns="http://www.w3.org/2000/svg">
<path d="M0 4C0 1.79086 1.79086 0 4 0H14C16.2091 0 18 1.79086 18 4V14C18 16.2091 16.2091 18 14 18H11.193C10.7762 18 10.403 18.2586 10.2567 18.6489L9 22L7.74333 18.6489C7.59696 18.2586 7.22384 18 6.807 18H4C1.79086 18 0 16.2091 0 14V4Z" fill="#115C91"/>
<path d="M5.112 14L8.598 4.06H10.502L13.988 14H12.14L11.286 11.452H7.8L6.96 14H5.112ZM8.248 9.982H10.838L9.956 7.322L9.564 5.782H9.536C9.38667 6.43533 9.256 6.94867 9.144 7.322L8.248 9.982Z" fill="white"/>
</svg>
