<svg width="26" height="23" viewBox="0 0 26 23" fill="none" xmlns="http://www.w3.org/2000/svg">
<rect x="1" y="3" width="24" height="19" rx="3" stroke="white" stroke-width="2"/>
<rect x="6.5" y="8.5" width="1" height="1" rx="0.5" fill="white" stroke="white"/>
<rect x="10.5" y="8.5" width="1" height="1" rx="0.5" fill="white" stroke="white"/>
<rect x="14.5" y="8.5" width="1" height="1" rx="0.5" fill="white" stroke="white"/>
<rect x="18.5" y="8.5" width="1" height="1" rx="0.5" fill="white" stroke="white"/>
<rect x="6" width="2" height="2" rx="1" fill="#228596"/>
<rect x="18" width="2" height="2" rx="1" fill="#228596"/>
<rect x="6.5" y="0.5" width="1" height="4" rx="0.5" fill="#FCAB2D" stroke="white"/>
<rect x="18.5" y="0.5" width="1" height="4" rx="0.5" fill="#FCAB2D" stroke="white"/>
<rect x="6.5" y="12.5" width="1" height="1" rx="0.5" fill="white" stroke="white"/>
<rect x="10.5" y="12.5" width="1" height="1" rx="0.5" fill="white" stroke="white"/>
<rect x="14.5" y="12.5" width="1" height="1" rx="0.5" fill="white" stroke="white"/>
<rect x="18.5" y="12.5" width="1" height="1" rx="0.5" fill="white" stroke="white"/>
<rect x="6.5" y="16.5" width="1" height="1" rx="0.5" fill="white" stroke="white"/>
<rect x="10.5" y="16.5" width="1" height="1" rx="0.5" fill="white" stroke="white"/>
<rect x="14.5" y="16.5" width="1" height="1" rx="0.5" fill="white" stroke="white"/>
</svg>
