<svg width="26" height="23" viewBox="0 0 26 23" fill="none" xmlns="http://www.w3.org/2000/svg">
<rect x="1" y="3" width="24" height="19" rx="3" stroke="#FCAB2D" stroke-width="2"/>
<rect x="6" y="8" width="2" height="2" rx="1" fill="#228596"/>
<rect x="10" y="8" width="2" height="2" rx="1" fill="#228596"/>
<rect x="14" y="8" width="2" height="2" rx="1" fill="#228596"/>
<rect x="18" y="8" width="2" height="2" rx="1" fill="#228596"/>
<rect x="6" width="2" height="2" rx="1" fill="#228596"/>
<rect x="18" width="2" height="2" rx="1" fill="#228596"/>
<rect x="6" width="2" height="5" rx="1" fill="#FCAB2D"/>
<rect x="18" width="2" height="5" rx="1" fill="#FCAB2D"/>
<rect x="6" y="12" width="2" height="2" rx="1" fill="#228596"/>
<rect x="10" y="12" width="2" height="2" rx="1" fill="#228596"/>
<rect x="14" y="12" width="2" height="2" rx="1" fill="#228596"/>
<rect x="18" y="12" width="2" height="2" rx="1" fill="#228596"/>
<rect x="6" y="16" width="2" height="2" rx="1" fill="#228596"/>
<rect x="10" y="16" width="2" height="2" rx="1" fill="#228596"/>
<rect x="14" y="16" width="2" height="2" rx="1" fill="#228596"/>
</svg>
