<svg width="18" height="16" viewBox="0 0 18 16" fill="none" xmlns="http://www.w3.org/2000/svg">
<path d="M1 6C1 4.34315 2.34315 3 4 3H14C15.6569 3 17 4.34315 17 6V12C17 13.6569 15.6569 15 14 15H4C2.34315 15 1 13.6569 1 12V6Z" stroke="#FCAB2D" stroke-width="2"/>
<rect x="4" y="6" width="2" height="2" rx="1" fill="#228596"/>
<rect x="8" y="6" width="2" height="2" rx="1" fill="#228596"/>
<rect x="12" y="6" width="2" height="2" rx="1" fill="#228596"/>
<rect x="4" width="2" height="4" rx="1" fill="#FCAB2D"/>
<rect x="12" width="2" height="4" rx="1" fill="#FCAB2D"/>
<rect x="4" y="10" width="2" height="2" rx="1" fill="#228596"/>
<rect x="8" y="10" width="2" height="2" rx="1" fill="#228596"/>
</svg>
