<svg width="54" height="46" viewBox="0 0 54 46" fill="none" xmlns="http://www.w3.org/2000/svg">
<path d="M24.4431 17.5869C24.4384 16.947 24.3307 16.297 24.1094 15.6588C23.0206 12.5193 19.5928 10.8569 16.4532 11.9458C13.3137 13.0346 11.6513 16.4624 12.7402 19.602C13.3585 21.3847 14.7309 22.6911 16.3765 23.288C16.9036 23.4792 17.4589 23.5977 18.0263 23.6356" stroke="#FF8C00" stroke-width="2" stroke-linecap="round"/>
<line x1="10.2524" y1="13.965" x2="8.58691" y2="13.0147" stroke="#FF8C00" stroke-width="2" stroke-linecap="round"/>
<path d="M14.4174 25.3433L13.0555 28.0725" stroke="#FF8C00" stroke-width="2" stroke-linecap="round"/>
<path d="M10.2847 20.73L5.13072 21.9765" stroke="#FF8C00" stroke-width="2" stroke-linecap="round"/>
<path d="M15.8426 9.34792L14.3157 4.8345" stroke="#FF8C00" stroke-width="2" stroke-linecap="round"/>
<path d="M22.758 9.95028L24.601 6.38498" stroke="#FF8C00" stroke-width="2" stroke-linecap="round"/>
<path d="M26.601 15.1849L30.8706 14.1531" stroke="#FF8C00" stroke-width="2" stroke-linecap="round"/>
<path d="M53 31.6455C53.01 34.9473 50.8852 38.1386 46.3545 39H20.5759C18.5171 38.8922 17.1251 38.1097 16.2525 37.0681C15.3626 36.0058 14.945 34.5921 15.0058 33.1367C15.1285 30.1996 17.1446 27.4139 20.5955 27.258L21.7247 27.207L21.5364 26.0925C21.3264 24.8488 21.896 23.2171 23.0692 22.0204C24.212 20.8546 25.7877 20.2402 27.4995 20.7604L28.1636 20.9621L28.5849 20.4106C31.2901 16.8696 35.0849 15.6128 38.3999 16.1011C41.7208 16.5903 44.5677 18.8213 45.4784 22.3584L45.6131 22.8817L46.1246 23.0558C50.7593 24.6333 52.9897 28.2843 53 31.6455Z" stroke="#228596" stroke-width="2"/>
<g filter="url(#filter0_d)">
<path d="M41.5 23C37 23 34.5 26.3056 34.5 30C34.5 31.6424 35.4723 33.8358 36.5 35" stroke="#228596" stroke-width="2" stroke-linecap="round"/>
</g>
<g filter="url(#filter1_d)">
<path d="M30.9997 34.0003C27.364 35.4917 23.5 33 23 31" stroke="#228596" stroke-width="2" stroke-linecap="round"/>
</g>
<defs>
<filter id="filter0_d" x="29.5" y="22" width="17" height="22" filterUnits="userSpaceOnUse" color-interpolation-filters="sRGB">
<feFlood flood-opacity="0" result="BackgroundImageFix"/>
<feColorMatrix in="SourceAlpha" type="matrix" values="0 0 0 0 0 0 0 0 0 0 0 0 0 0 0 0 0 0 127 0"/>
<feOffset dy="4"/>
<feGaussianBlur stdDeviation="2"/>
<feColorMatrix type="matrix" values="0 0 0 0 0 0 0 0 0 0 0 0 0 0 0 0 0 0 0.06 0"/>
<feBlend mode="normal" in2="BackgroundImageFix" result="effect1_dropShadow"/>
<feBlend mode="normal" in="SourceGraphic" in2="effect1_dropShadow" result="shape"/>
</filter>
<filter id="filter1_d" x="17.1905" y="27.5816" width="19.213" height="18.3573" filterUnits="userSpaceOnUse" color-interpolation-filters="sRGB">
<feFlood flood-opacity="0" result="BackgroundImageFix"/>
<feColorMatrix in="SourceAlpha" type="matrix" values="0 0 0 0 0 0 0 0 0 0 0 0 0 0 0 0 0 0 127 0"/>
<feOffset dy="4"/>
<feGaussianBlur stdDeviation="2"/>
<feColorMatrix type="matrix" values="0 0 0 0 0 0 0 0 0 0 0 0 0 0 0 0 0 0 0.06 0"/>
<feBlend mode="normal" in2="BackgroundImageFix" result="effect1_dropShadow"/>
<feBlend mode="normal" in="SourceGraphic" in2="effect1_dropShadow" result="shape"/>
</filter>
</defs>
</svg>
