<svg width="30" height="30" viewBox="0 0 30 30" fill="none" xmlns="http://www.w3.org/2000/svg">
<circle cx="15" cy="15" r="15" fill="#FCAB2D"/>
<path d="M12.2694 22V19.552H10.7034V18.382H12.2694V16.78H10.7034V15.412H12.2694V9.148H15.6534C17.2254 9.148 18.3894 9.466 19.1454 10.102C19.9134 10.738 20.2974 11.662 20.2974 12.874C20.2974 14.098 19.8834 15.058 19.0554 15.754C18.2274 16.438 17.0094 16.78 15.4014 16.78H13.8894V18.382H16.8594V19.552H13.8894V22H12.2694ZM13.8894 15.412H15.1674C16.2594 15.412 17.1054 15.232 17.7054 14.872C18.3174 14.512 18.6234 13.864 18.6234 12.928C18.6234 12.112 18.3714 11.506 17.8674 11.11C17.3634 10.714 16.5774 10.516 15.5094 10.516H13.8894V15.412Z" fill="white"/>
</svg>
