<svg width="26" height="26" viewBox="0 0 26 26" fill="none" xmlns="http://www.w3.org/2000/svg">
<mask id="mask0" mask-type="alpha" maskUnits="userSpaceOnUse" x="0" y="0" width="26" height="26">
<rect x="0.5" y="0.5" width="25" height="25" fill="#C4C4C4" stroke="black"/>
</mask>
<g mask="url(#mask0)">
<mask id="mask1" mask-type="alpha" maskUnits="userSpaceOnUse" x="2" y="4" width="22" height="19">
<rect x="2" y="4" width="22" height="19" fill="#C4C4C4"/>
</mask>
<g mask="url(#mask1)">
<path d="M19 6C19 5.44771 19.4477 5 20 5C20.5523 5 21 5.44772 21 6L21 10C21 10.5523 20.5523 11 20 11C19.4477 11 19 10.5523 19 10L19 6Z" fill="#228596"/>
<path d="M19 15C19 14.4477 19.4477 14 20 14C20.5523 14 21 14.4477 21 15L21 21C21 21.5523 20.5523 22 20 22C19.4477 22 19 21.5523 19 21L19 15Z" fill="#228596"/>
<path d="M5 6C5 5.44771 5.44772 5 6 5C6.55229 5 7 5.44772 7 6C7 6.55229 6.55228 7 6 7C5.44771 7 5 6.55228 5 6Z" fill="#228596"/>
<path d="M5 12C5 11.4477 5.44772 11 6.00001 11C6.55229 11 7.00001 11.4477 7.00001 12L7 21C7 21.5523 6.55228 22 5.99999 22C5.44771 22 4.99999 21.5523 4.99999 21L5 12Z" fill="#228596"/>
<circle cx="6" cy="9" r="2" stroke="#228596" stroke-width="2"/>
<path d="M12 20C12 19.4477 12.4477 19 13 19C13.5523 19 14 19.4477 14 20L14 21C14 21.5523 13.5523 22 13 22C12.4477 22 12 21.5523 12 21L12 20Z" fill="#228596"/>
<path d="M12 6C12 5.44772 12.4477 5 13 5C13.5523 5 14 5.44772 14 6L14 14C14 14.5523 13.5523 15 13 15C12.4477 15 12 14.5523 12 14L12 6Z" fill="#228596"/>
<circle cx="13" cy="17" r="2" stroke="#228596" stroke-width="2"/>
<circle cx="20" cy="12" r="2" stroke="#228596" stroke-width="2"/>
</g>
</g>
</svg>
