<svg width="50" height="50" viewBox="0 0 50 50" fill="none" xmlns="http://www.w3.org/2000/svg">
<path d="M0 25C0 11.1929 11.1929 0 25 0C38.8071 0 50 11.1929 50 25C50 38.8071 38.8071 50 25 50C11.1929 50 0 38.8071 0 25Z" fill="#FCAB2D"/>
<path d="M31.3302 33.5L32.4233 41.3067C32.5293 42.0641 31.7804 42.6554 31.0683 42.3765L25.0001 40L18.9319 42.3765C18.2198 42.6554 17.4709 42.0641 17.5769 41.3067L18.67 33.5" stroke="white" stroke-width="2"/>
<circle cx="25" cy="22" r="5" stroke="white" stroke-width="2"/>
<path d="M25 7.46149L27.7557 10.3985C28.2246 10.8983 28.9167 11.1232 29.5898 10.9945L33.5455 10.2381L34.0486 14.2339C34.1342 14.9139 34.5619 15.5026 35.1821 15.7941L38.8269 17.5074L36.8852 21.0357C36.5548 21.6361 36.5548 22.3639 36.8852 22.9643L38.8269 26.4926L35.1821 28.2059C34.5619 28.4974 34.1342 29.0861 34.0486 29.7661L33.5455 33.7619L29.5898 33.0055C28.9167 32.8768 28.2246 33.1017 27.7557 33.6015L25 36.5385L22.2443 33.6015C21.7754 33.1017 21.0833 32.8768 20.4102 33.0055L16.4545 33.7619L15.9514 29.7661C15.8658 29.0861 15.4381 28.4974 14.8179 28.2059L11.1731 26.4926L13.1148 22.9643C13.4452 22.3639 13.4452 21.6361 13.1148 21.0357L11.1731 17.5074L14.8179 15.7941C15.4381 15.5026 15.8658 14.9139 15.9514 14.2339L16.4545 10.2381L20.4102 10.9945C21.0833 11.1232 21.7754 10.8983 22.2443 10.3985L25 7.46149Z" stroke="white" stroke-width="2"/>
</svg>
