<svg width="22" height="22" viewBox="0 0 22 22" fill="none" xmlns="http://www.w3.org/2000/svg">
<circle cx="11" cy="11" r="11" fill="white"/>
<path d="M8.34508 15.1386C9.66265 16.2738 10.8559 16.9473 10.9059 16.9755C10.9352 16.9918 10.9676 17 11.0001 17C11.0326 17 11.065 16.9918 11.0941 16.9755C11.1443 16.9475 12.3372 16.2738 13.6546 15.1388C14.8781 14.0842 16.4314 12.4214 16.8833 10.4863C17.3874 8.3279 16.1754 6.76869 14.8359 6.23362C13.4218 5.66871 11.944 6.15001 11.0001 7.45893C10.0561 6.14982 8.5782 5.66797 7.16374 6.23362C5.8244 6.76887 4.6126 8.3279 5.1167 10.4863C5.568 12.4212 7.12154 14.0842 8.34508 15.1386Z" fill="#FCAB2D"/>
</svg>
