<svg width="23" height="22" viewBox="0 0 23 22" fill="none" xmlns="http://www.w3.org/2000/svg">
<path d="M21.8005 8.75425L21.8005 8.75428C21.0052 12.308 18.228 15.4575 15.9192 17.534C13.9932 19.2655 12.2103 20.4438 11.5002 20.8894C10.787 20.4418 9.00465 19.2639 7.07997 17.5335C4.77118 15.4574 1.99384 12.3077 1.19959 8.75452L1.19953 8.75425C0.345087 4.93664 2.38792 2.28434 4.53206 1.39021L4.53229 1.39011C6.74874 0.465197 9.09856 1.20164 10.6775 3.48639L11.5002 4.67682L12.3229 3.48637C13.9013 1.20228 16.2512 0.466419 18.4674 1.39026L18.4674 1.39027C20.6118 2.28407 22.6549 4.93666 21.8005 8.75425Z" stroke="white" stroke-width="2"/>
</svg>
