<svg width="30" height="30" viewBox="0 0 30 30" fill="none" xmlns="http://www.w3.org/2000/svg">
<circle cx="15" cy="15" r="15" fill="white"/>
<path d="M11.9026 19.8001C13.4398 21.1417 14.8319 21.9378 14.8902 21.9711C14.9244 21.9904 14.9621 22 15.0001 22C15.0381 22 15.0758 21.9904 15.1098 21.9711C15.1683 21.938 16.56 21.1417 18.097 19.8004C19.5244 18.5541 21.3367 16.5889 21.8639 14.302C22.452 11.7512 21.038 9.90845 19.4752 9.2761C17.8254 8.60847 16.1013 9.17728 15.0001 10.7242C13.8987 9.17706 12.1746 8.6076 10.5244 9.2761C8.96181 9.90867 7.54804 11.7512 8.13615 14.302C8.66267 16.5887 10.4751 18.5541 11.9026 19.8001Z" fill="#FEE6C0"/>
</svg>
