<svg width="23" height="22" viewBox="0 0 23 22" fill="none" xmlns="http://www.w3.org/2000/svg">
<path d="M6.4114 18.2772C8.93676 20.5476 11.2238 21.8947 11.3196 21.9511C11.3758 21.9837 11.4378 22 11.5002 22C11.5626 22 11.6246 21.9837 11.6804 21.9511C11.7766 21.8951 14.0629 20.5476 16.5879 18.2775C18.933 16.1684 21.9103 12.8427 22.7763 8.97267C23.7425 4.65581 21.4196 1.53737 18.8521 0.467244C16.1418 -0.662585 13.3093 0.300012 11.5002 2.91786C9.69077 0.299641 6.85822 -0.664069 4.14717 0.467244C1.58011 1.53775 -0.742509 4.65581 0.223677 8.97267C1.08867 12.8423 4.06629 16.1684 6.4114 18.2772Z" fill="#FCAB2D"/>
</svg>
