<svg width="12" height="12" viewBox="0 0 12 12" fill="none" xmlns="http://www.w3.org/2000/svg">
<path fill-rule="evenodd" clip-rule="evenodd" d="M3.57847 0.16331C2.95341 0.191449 2.52663 0.290719 2.15274 0.436106C1.7666 0.585661 1.43935 0.787066 1.11262 1.11354C0.786154 1.43974 0.58527 1.76752 0.435194 2.15391C0.290067 2.52702 0.190798 2.95432 0.162137 3.57938C0.0891834 5.18541 0.0891834 6.81697 0.162137 8.42274C0.190798 9.04806 0.290067 9.47458 0.435194 9.84847C0.58527 10.2343 0.786154 10.5621 1.11262 10.8886C1.43935 11.2151 1.7666 11.4162 2.15274 11.5663C2.52663 11.7111 2.95341 11.8109 3.57847 11.8393C5.1845 11.9112 6.81606 11.9118 8.42183 11.8393C9.04715 11.8109 9.47393 11.7111 9.84782 11.5663C10.2337 11.4162 10.5617 11.2151 10.8882 10.8886C11.2147 10.5621 11.4153 10.2346 11.5654 9.84847C11.7105 9.47458 11.81 9.04806 11.8387 8.42274C11.9114 6.81697 11.9114 5.18515 11.8387 3.57938C11.81 2.95432 11.7105 2.52702 11.5654 2.15391C11.4153 1.76752 11.2147 1.44 10.8882 1.11354C10.5617 0.787066 10.2337 0.585922 9.84782 0.436106C9.47393 0.290719 9.04715 0.191449 8.42183 0.16331C6.81658 0.0887926 5.18372 0.0887926 3.57847 0.16331Z" fill="#228596"/>
<path fill-rule="evenodd" clip-rule="evenodd" d="M8.37371 1.21956C8.94639 1.24561 9.25749 1.34124 9.46463 1.42201C9.73873 1.52831 9.93414 1.65572 10.1397 1.86129C10.3453 2.06687 10.4724 2.26254 10.5793 2.53638C10.6598 2.74352 10.7549 3.05461 10.7812 3.62704C10.8534 5.20024 10.8534 6.80028 10.7812 8.37348C10.7549 8.94643 10.6598 9.25752 10.5793 9.46414C10.4724 9.73876 10.3453 9.93443 10.1397 10.14C9.93414 10.3453 9.73873 10.473 9.46463 10.5793C9.25749 10.6595 8.94639 10.7554 8.37371 10.7817C6.79972 10.8523 5.20047 10.8529 3.62649 10.7817C3.05432 10.7554 2.74322 10.6595 2.53608 10.5793C2.26225 10.473 2.06631 10.3453 1.861 10.14C1.65543 9.93443 1.52828 9.73902 1.42119 9.46414C1.34094 9.25752 1.24584 8.94643 1.21927 8.37348C1.1484 6.80002 1.14814 5.20076 1.21927 3.62704C1.24584 3.05461 1.34094 2.74378 1.42119 2.53638C1.52828 2.26254 1.65543 2.06687 1.861 1.86129C2.06631 1.65546 2.26225 1.52831 2.53608 1.42201C2.74322 1.34124 3.05432 1.24561 3.62649 1.21956C5.20047 1.14791 6.79972 1.14843 8.37371 1.21956Z" fill="#228596"/>
<path fill-rule="evenodd" clip-rule="evenodd" d="M6.0005 2.98438C4.33481 2.98438 2.98438 4.33481 2.98438 6.0005C2.98438 7.66594 4.33481 9.01637 6.0005 9.01637C7.66646 9.01637 9.01637 7.66594 9.01637 6.0005C9.01637 4.33481 7.66646 2.98438 6.0005 2.98438Z" fill="white"/>
<path fill-rule="evenodd" clip-rule="evenodd" d="M9.84073 2.86494C9.84073 3.25447 9.52468 3.56973 9.13568 3.56973C8.74668 3.56973 8.43115 3.25447 8.43115 2.8652C8.43115 2.47568 8.74668 2.16016 9.13568 2.16016C9.52468 2.1599 9.84073 2.47568 9.84073 2.86494Z" fill="white"/>
<path fill-rule="evenodd" clip-rule="evenodd" d="M6.00002 7.95877C4.919 7.95877 4.04199 7.08202 4.04199 6.00074C4.04199 4.91946 4.919 4.04297 6.00002 4.04297C7.08131 4.04271 7.95806 4.91972 7.95806 6.00074C7.95806 7.08176 7.08131 7.95877 6.00002 7.95877Z" fill="#228596"/>
</svg>
