<svg width="10" height="15" viewBox="0 0 10 15" fill="none" xmlns="http://www.w3.org/2000/svg">
<path fill-rule="evenodd" clip-rule="evenodd" d="M8.5379 7.28516C8.05674 7.28516 7.09486 8.24364 5.17066 8.24364C3.24645 8.24364 2.28457 7.28516 1.80341 7.28516C1.27433 7.28516 0.841309 7.71643 0.841309 8.24364C0.841309 8.7231 1.12992 8.96272 1.32247 9.05866C1.89969 9.39422 3.72761 10.1611 3.72761 10.1611L1.65922 12.7494C1.65922 12.7494 1.27433 13.1809 1.27433 13.5164C1.27433 14.0436 1.70713 14.4751 2.23643 14.4751C2.71737 14.4751 2.95784 14.1396 2.95784 14.1396L5.17066 11.599L7.33533 14.1396C7.33533 14.1396 7.5758 14.4751 8.05674 14.4751C8.58604 14.4751 9.01884 14.0436 9.01884 13.5164C9.01884 13.2288 8.63396 12.7494 8.63396 12.7494L6.6137 10.1611C6.6137 10.1611 8.44162 9.39422 9.01884 9.05866C9.21139 8.91476 9.5 8.7231 9.5 8.24364C9.5 7.71643 9.06698 7.28516 8.5379 7.28516Z" fill="#228596"/>
<path fill-rule="evenodd" clip-rule="evenodd" d="M5.17047 0.0957031C3.2944 0.0957031 1.80322 1.58162 1.80322 3.45084C1.80322 5.32028 3.2944 6.8062 5.17047 6.8062C7.04653 6.8062 8.53771 5.32028 8.53771 3.45084C8.53771 1.58162 7.04653 0.0957031 5.17047 0.0957031ZM5.17046 5.12852C4.25649 5.12852 3.48694 4.36146 3.48694 3.45073C3.48694 2.53999 4.25649 1.77316 5.17046 1.77316C6.08442 1.77316 6.85397 2.53999 6.85397 3.45073C6.85397 4.36146 6.08442 5.12852 5.17046 5.12852Z" fill="#228596"/>
</svg>
