<svg width="15" height="10" viewBox="0 0 15 10" fill="none" xmlns="http://www.w3.org/2000/svg">
<path fill-rule="evenodd" clip-rule="evenodd" d="M8.41421 9.63801C8.41421 9.63801 8.67431 9.60683 8.80756 9.45094C8.9296 9.30726 8.92607 9.03855 8.92607 9.03855C8.92607 9.03855 8.9091 7.77887 9.44562 7.5934C9.97446 7.41019 10.6538 8.81065 11.3733 9.34905C11.9181 9.7563 12.3313 9.66758 12.3313 9.66758L14.2567 9.63801C14.2567 9.63801 15.2638 9.57051 14.7859 8.7078C14.7468 8.6374 14.5078 8.06944 13.3547 6.9033C12.1475 5.68251 12.3092 5.87987 13.7631 3.76808C14.6488 2.48205 15.0027 1.69712 14.8922 1.36058C14.7868 1.04044 14.1356 1.12498 14.1356 1.12498L11.9681 1.13976C11.9681 1.13976 11.8073 1.11598 11.6881 1.19344C11.5715 1.26962 11.4969 1.44705 11.4969 1.44705C11.4969 1.44705 11.1538 2.44219 10.6964 3.28819C9.73134 5.07405 9.34536 5.16887 9.18745 5.05765C8.82037 4.79923 8.9123 4.01944 8.9123 3.46562C8.9123 1.73473 9.15318 1.01312 8.44304 0.826368C8.20761 0.764333 8.034 0.723511 7.4315 0.716761C6.65794 0.708404 6.00354 0.719333 5.63294 0.917333C5.3863 1.0488 5.19603 1.34194 5.31231 1.35898C5.45549 1.37955 5.77964 1.45444 5.95165 1.70933C6.17395 2.03848 6.16626 2.77808 6.16626 2.77808C6.16626 2.77808 6.29375 4.8153 5.86805 5.06826C5.57592 5.24183 5.17521 4.88762 4.31453 3.2673C3.87378 2.43737 3.54098 1.52033 3.54098 1.52033C3.54098 1.52033 3.47692 1.34837 3.36225 1.25676C3.22355 1.14587 3.02944 1.11051 3.02944 1.11051L0.969831 1.12498C0.969831 1.12498 0.660729 1.1343 0.547018 1.28087C0.44612 1.41137 0.539011 1.68073 0.539011 1.68073C0.539011 1.68073 2.15146 5.79148 3.97725 7.86308C5.65152 9.76272 7.55257 9.63801 7.55257 9.63801H8.41421Z" fill="#228596"/>
</svg>
