<svg width="115" height="24" viewBox="0 0 115 24" fill="none" xmlns="http://www.w3.org/2000/svg">
<path d="M0.8 18V0.839999H15.296V18H11.096V4.416H5V18H0.8ZM17.4097 18.12V14.496C17.6657 14.464 17.8897 14.416 18.0817 14.352C18.2737 14.272 18.4817 14.136 18.7057 13.944C18.9297 13.736 19.1057 13.464 19.2337 13.128C19.3777 12.792 19.4977 12.328 19.5937 11.736C19.6897 11.128 19.7377 10.416 19.7377 9.6V5.64H29.8657V18H25.7137V8.928H23.6497V9.624C23.6497 12.344 23.1777 14.44 22.2337 15.912C21.2897 17.384 19.6817 18.12 17.4097 18.12ZM31.466 18L33.962 14.256L34.538 13.512V13.488C33.866 13.152 33.322 12.656 32.906 12C32.506 11.328 32.306 10.6 32.306 9.816C32.306 8.52 32.706 7.504 33.506 6.768C34.306 6.016 35.394 5.64 36.77 5.64H43.25V18H39.098V14.232H38.234L35.858 18H31.466ZM38.114 11.472H39.098V8.208H38.09C36.986 8.208 36.434 8.736 36.434 9.792C36.434 10.912 36.994 11.472 38.114 11.472ZM44.8008 18L48.2808 11.616V11.568L45.0648 5.64H49.3368L51.6168 10.032H52.7208V5.64H56.5848V10.032H57.7128L59.9928 5.64H64.2648L61.0488 11.568V11.616L64.5288 18H60.0408L57.8328 13.512H56.5848V18H52.7208V13.512H51.4968L49.2888 18H44.8008ZM66.0873 18V5.64H69.9993V11.088C69.9993 11.488 69.9833 11.896 69.9513 12.312H69.9993C70.0953 12.072 70.3193 11.664 70.6713 11.088L74.1033 5.64H78.1353V18H74.2233V12.6C74.2233 12.088 74.2393 11.672 74.2713 11.352H74.2233C74.1753 11.48 73.9513 11.888 73.5513 12.576L70.1193 18H66.0873ZM80.9473 18V14.064H84.8833V18H80.9473Z" fill="#228596"/>
<path d="M87.6967 22.8V5.64H91.4407V6.264L91.3927 7.056H91.4407C92.2887 5.92 93.5367 5.352 95.1847 5.352C96.8647 5.352 98.2087 5.952 99.2167 7.152C100.241 8.336 100.753 9.896 100.753 11.832C100.753 13.768 100.209 15.328 99.1207 16.512C98.0327 17.696 96.6567 18.288 94.9927 18.288C93.8087 18.288 92.7607 17.896 91.8487 17.112H91.8007C91.8327 17.4 91.8487 17.752 91.8487 18.168V22.8H87.6967ZM91.7287 11.904C91.7287 12.704 91.9367 13.4 92.3527 13.992C92.7847 14.568 93.3847 14.856 94.1527 14.856C94.8407 14.856 95.4167 14.592 95.8807 14.064C96.3447 13.536 96.5767 12.816 96.5767 11.904C96.5767 10.992 96.3527 10.256 95.9047 9.696C95.4567 9.136 94.8727 8.856 94.1527 8.856C93.4647 8.856 92.8887 9.112 92.4247 9.624C91.9607 10.136 91.7287 10.896 91.7287 11.904ZM102.7 19.128C103.148 19.432 103.572 19.584 103.972 19.584C104.964 19.584 105.628 19.168 105.964 18.336L106.204 17.76L100.947 5.64H105.652L107.476 11.328L107.932 13.248H107.98C108.14 12.464 108.276 11.848 108.388 11.4L109.948 5.64H114.484L109.42 19.32C108.94 20.6 108.228 21.536 107.284 22.128C106.356 22.736 105.348 23.04 104.26 23.04C103.78 23.04 103.3 22.968 102.82 22.824C102.34 22.68 101.98 22.536 101.74 22.392L101.38 22.176L102.7 19.128Z" fill="#FF8C00"/>
</svg>
