<svg width="30" height="41" viewBox="0 0 30 41" fill="none" xmlns="http://www.w3.org/2000/svg">
<g filter="url(#filter0_f)">
<ellipse cx="15.7695" cy="36.1031" rx="11.7949" ry="2.35897" fill="#16434B" fill-opacity="0.2"/>
</g>
<path fill-rule="evenodd" clip-rule="evenodd" d="M13.4043 36.1034C13.2085 36.1034 13.0128 36.052 12.866 35.898L4.2531 23.8892C1.80626 21.3218 0.436035 17.9329 0.436035 14.2872C0.436035 10.6929 1.80626 7.25268 4.2531 4.68532C9.34252 -0.60344 17.5639 -0.60344 22.6044 4.68532C27.6449 10.0254 27.6449 18.6517 22.6044 23.9405L13.9426 35.898C13.7958 36.052 13.6 36.1034 13.4043 36.1034ZM13.4104 23.129C18.6217 23.129 22.8463 18.9044 22.8463 13.6931C22.8463 8.4818 18.6217 4.25721 13.4104 4.25721C8.19908 4.25721 3.97449 8.4818 3.97449 13.6931C3.97449 18.9044 8.19908 23.129 13.4104 23.129Z" fill="#FCAB2D"/>
<path fill-rule="evenodd" clip-rule="evenodd" d="M11.9394 6.77081C8.68182 7.46322 6.38544 10.4792 6.23955 13.4613C6.2208 13.8446 6.27222 14.1866 6.34144 14.4604C6.44797 14.8817 6.88498 15.0802 7.31004 14.9898L19.5114 12.3963C19.9365 12.306 20.255 11.9469 20.181 11.5187C20.1329 11.2405 20.0407 10.9071 19.8677 10.5646C18.5214 7.89958 15.1969 6.0784 11.9394 6.77081ZM13.8319 7.57458C14.5993 7.41147 17.5719 8.46483 18.5316 10.2283C18.6113 10.3748 18.6659 10.5193 18.7029 10.6534C18.8152 11.0595 18.495 11.4068 18.0829 11.4944L16.7074 11.7867C16.3097 11.8713 15.9002 11.707 15.6763 11.3676C15.4576 11.0362 15.192 10.6258 15.0219 10.3362C14.7544 9.88104 14.4815 9.4753 14.2451 9.12382C13.6465 8.23373 13.2818 7.69151 13.8319 7.57458ZM13.951 10.5637C13.0698 8.75983 12.5342 7.85029 12.1841 7.9247C11.834 7.99912 11.73 8.62416 11.6436 11.0542C11.6287 11.4717 11.6128 11.8005 11.5966 12.0586C11.5621 12.6099 11.8725 12.8143 12.4128 12.6995L13.9176 12.3796C14.4578 12.2648 14.6582 11.9518 14.4025 11.4623C14.2827 11.2331 14.1344 10.9392 13.951 10.5637ZM10.4537 8.2927C9.68634 8.45581 7.39915 10.6272 7.23972 12.6285C7.22647 12.7948 7.2354 12.949 7.25608 13.0865C7.31872 13.5032 7.75245 13.6902 8.16459 13.6026L9.54009 13.3102C9.93781 13.2257 10.2451 12.9091 10.3116 12.508C10.3765 12.1163 10.4523 11.6333 10.4899 11.2996C10.5491 10.775 10.6334 10.2933 10.7064 9.87606C10.8912 8.81944 11.0039 8.17576 10.4537 8.2927Z" fill="#FCAB2D"/>
<path d="M6.23955 13.4613L6.13967 13.4564L6.13967 13.4564L6.23955 13.4613ZM6.34144 14.4604L6.43839 14.4359L6.34144 14.4604ZM20.181 11.5187L20.0824 11.5358L20.181 11.5187ZM19.8677 10.5646L19.9569 10.5195L19.9569 10.5195L19.8677 10.5646ZM18.5316 10.2283L18.6194 10.1805L18.5316 10.2283ZM13.8319 7.57458L13.8111 7.47676L13.8319 7.57458ZM18.7029 10.6534L18.6066 10.68L18.6066 10.68L18.7029 10.6534ZM15.6763 11.3676L15.7597 11.3125L15.6763 11.3676ZM15.0219 10.3362L14.9356 10.3869L15.0219 10.3362ZM14.2451 9.12382L14.3281 9.06801L14.2451 9.12382ZM12.1841 7.9247L12.2049 8.02252L12.1841 7.9247ZM13.951 10.5637L14.0409 10.5198L13.951 10.5637ZM11.6436 11.0542L11.7435 11.0577L11.6436 11.0542ZM11.5966 12.0586L11.6964 12.0649L11.5966 12.0586ZM12.4128 12.6995L12.4336 12.7973L12.4128 12.6995ZM13.9176 12.3796L13.8968 12.2818L13.9176 12.3796ZM14.4025 11.4623L14.4911 11.416L14.4025 11.4623ZM7.23972 12.6285L7.14003 12.6206L7.23972 12.6285ZM10.4537 8.2927L10.4745 8.39051L10.4537 8.2927ZM7.25608 13.0865L7.35496 13.0717L7.25608 13.0865ZM8.16459 13.6026L8.1438 13.5048L8.16459 13.6026ZM9.54009 13.3102L9.56089 13.4081L9.54009 13.3102ZM10.3116 12.508L10.4102 12.5243L10.3116 12.508ZM10.4899 11.2996L10.3906 11.2884L10.4899 11.2996ZM10.7064 9.87606L10.8049 9.8933L10.7064 9.87606ZM6.33943 13.4662C6.48324 10.5267 8.74962 7.55105 11.9602 6.86863L11.9186 6.673C8.61402 7.3754 6.28765 10.4317 6.13967 13.4564L6.33943 13.4662ZM6.43839 14.4359C6.3711 14.1698 6.32125 13.8378 6.33943 13.4662L6.13967 13.4564C6.12035 13.8515 6.17334 14.2035 6.24449 14.4849L6.43839 14.4359ZM7.28925 14.892C6.90188 14.9744 6.52831 14.7915 6.43839 14.4359L6.24449 14.4849C6.36763 14.9719 6.86808 15.186 7.33083 15.0876L7.28925 14.892ZM19.4906 12.2985L7.28925 14.892L7.33083 15.0876L19.5322 12.4942L19.4906 12.2985ZM20.0824 11.5358C20.1449 11.8972 19.878 12.2162 19.4906 12.2985L19.5322 12.4942C19.995 12.3958 20.3651 11.9967 20.2795 11.5017L20.0824 11.5358ZM19.7784 10.6097C19.9462 10.9417 20.0357 11.2653 20.0824 11.5358L20.2795 11.5017C20.2301 11.2157 20.1353 10.8725 19.9569 10.5195L19.7784 10.6097ZM11.9602 6.86863C15.1707 6.18621 18.4514 7.98275 19.7784 10.6097L19.9569 10.5195C18.5915 7.81641 15.2231 5.97059 11.9186 6.673L11.9602 6.86863ZM18.6194 10.1805C18.1249 9.27166 17.1195 8.55584 16.1532 8.08893C15.6682 7.85461 15.1885 7.68073 14.78 7.57558C14.3766 7.47176 14.0274 7.4308 13.8111 7.47676L13.8527 7.67239C14.0202 7.6368 14.3303 7.66634 14.7301 7.76926C15.1248 7.87085 15.5921 8.03995 16.0662 8.26901C17.0179 8.72887 17.9787 9.42145 18.4438 10.2761L18.6194 10.1805ZM18.7993 10.6267C18.7605 10.4862 18.7032 10.3344 18.6194 10.1805L18.4438 10.2761C18.5194 10.4152 18.5713 10.5525 18.6066 10.68L18.7993 10.6267ZM18.1037 11.5922C18.3298 11.5441 18.5343 11.4242 18.668 11.2554C18.8031 11.0846 18.8649 10.8638 18.7993 10.6267L18.6066 10.68C18.6533 10.849 18.6111 11.0049 18.5111 11.1313C18.4097 11.2594 18.2481 11.357 18.0621 11.3965L18.1037 11.5922ZM16.7282 11.8845L18.1037 11.5922L18.0621 11.3965L16.6866 11.6889L16.7282 11.8845ZM15.5928 11.4227C15.8398 11.797 16.2909 11.9775 16.7282 11.8845L16.6866 11.6889C16.3284 11.765 15.9606 11.617 15.7597 11.3125L15.5928 11.4227ZM14.9356 10.3869C15.1072 10.6789 15.3742 11.0913 15.5928 11.4227L15.7597 11.3125C15.5411 10.9811 15.2767 10.5726 15.1081 10.2856L14.9356 10.3869ZM14.1622 9.17963C14.3987 9.5313 14.6699 9.93467 14.9356 10.3869L15.1081 10.2856C14.8389 9.8274 14.5644 9.41931 14.3281 9.06801L14.1622 9.17963ZM13.8111 7.47676C13.6582 7.50928 13.5398 7.5779 13.4879 7.70236C13.439 7.81976 13.4631 7.95712 13.514 8.09413C13.6165 8.36956 13.8663 8.73977 14.1622 9.17963L14.3281 9.06801C14.0253 8.61778 13.7935 8.27184 13.7015 8.02441C13.6552 7.89998 13.6538 7.82423 13.6725 7.77926C13.6883 7.74134 13.7306 7.69834 13.8527 7.67239L13.8111 7.47676ZM12.2049 8.02252C12.2434 8.01433 12.3099 8.02878 12.4167 8.12595C12.5203 8.22025 12.6421 8.37479 12.7845 8.59428C13.0686 9.03215 13.4204 9.70547 13.8612 10.6076L14.0409 10.5198C13.6003 9.6181 13.2438 8.93469 12.9523 8.48542C12.8069 8.26133 12.674 8.0897 12.5513 7.97802C12.4317 7.86921 12.2999 7.79787 12.1633 7.82689L12.2049 8.02252ZM11.7435 11.0577C11.7868 9.84138 11.8343 9.08452 11.9135 8.62301C11.9533 8.39165 11.9995 8.24428 12.0512 8.15246C12.1003 8.06553 12.1506 8.03408 12.2049 8.02252L12.1633 7.82689C12.0427 7.85254 11.9487 7.92712 11.877 8.05425C11.8081 8.1765 11.7573 8.35122 11.7164 8.58917C11.6345 9.0663 11.5868 9.83697 11.5436 11.0506L11.7435 11.0577ZM11.6964 12.0649C11.7127 11.8056 11.7287 11.4759 11.7435 11.0577L11.5436 11.0506C11.5288 11.4675 11.5129 11.7953 11.4968 12.0524L11.6964 12.0649ZM12.392 12.6016C12.1331 12.6567 11.9559 12.6289 11.8492 12.5488C11.7463 12.4717 11.6802 12.3235 11.6964 12.0649L11.4968 12.0524C11.4785 12.345 11.5503 12.5747 11.7291 12.7088C11.904 12.84 12.1522 12.8571 12.4336 12.7973L12.392 12.6016ZM13.8968 12.2818L12.392 12.6016L12.4336 12.7973L13.9384 12.4774L13.8968 12.2818ZM14.3138 11.5086C14.4338 11.7383 14.4337 11.9005 14.3711 12.0128C14.3062 12.1294 14.1556 12.2268 13.8968 12.2818L13.9384 12.4774C14.2197 12.4176 14.4395 12.3011 14.5459 12.1101C14.6546 11.9149 14.6269 11.6759 14.4911 11.416L14.3138 11.5086ZM13.8612 10.6076C14.0448 10.9836 14.1935 11.2784 14.3138 11.5086L14.4911 11.416C14.3718 11.1878 14.224 10.8947 14.0409 10.5198L13.8612 10.6076ZM7.3394 12.6364C7.41667 11.6665 8.01269 10.643 8.69511 9.83583C9.03503 9.43375 9.39315 9.0892 9.71238 8.83587C10.0358 8.57921 10.3071 8.4261 10.4745 8.39051L10.4329 8.19488C10.2167 8.24084 9.91428 8.42032 9.58805 8.67921C9.25762 8.94143 8.8901 9.2954 8.54237 9.70671C7.84949 10.5263 7.2222 11.5892 7.14003 12.6206L7.3394 12.6364ZM7.35496 13.0717C7.33529 12.9408 7.32683 12.7943 7.3394 12.6364L7.14003 12.6206C7.12611 12.7953 7.13551 12.9572 7.15719 13.1014L7.35496 13.0717ZM8.1438 13.5048C7.95776 13.5443 7.77045 13.5209 7.62567 13.4451C7.48297 13.3703 7.38104 13.2451 7.35496 13.0717L7.15719 13.1014C7.19376 13.3446 7.34001 13.5212 7.53287 13.6222C7.72365 13.7222 7.95928 13.7485 8.18538 13.7004L8.1438 13.5048ZM9.5193 13.2124L8.1438 13.5048L8.18538 13.7004L9.56089 13.4081L9.5193 13.2124ZM10.2129 12.4916C10.1533 12.8515 9.87746 13.1363 9.5193 13.2124L9.56089 13.4081C9.99816 13.3151 10.3369 12.9667 10.4102 12.5243L10.2129 12.4916ZM10.3906 11.2884C10.3533 11.6192 10.2779 12.0999 10.2129 12.4916L10.4102 12.5243C10.4752 12.1327 10.5514 11.6473 10.5893 11.3108L10.3906 11.2884ZM10.6079 9.85883C10.5349 10.2759 10.4501 10.7603 10.3906 11.2884L10.5893 11.3108C10.6481 10.7896 10.7318 10.3108 10.8049 9.8933L10.6079 9.85883ZM10.4745 8.39051C10.5966 8.36456 10.6527 8.38664 10.6826 8.41485C10.718 8.44831 10.7475 8.51808 10.7559 8.65057C10.7724 8.91404 10.7014 9.32436 10.6079 9.85883L10.8049 9.8933C10.8962 9.37114 10.9739 8.93131 10.9555 8.63802C10.9463 8.49213 10.9124 8.35686 10.82 8.2695C10.722 8.1769 10.5859 8.16236 10.4329 8.19488L10.4745 8.39051Z" fill="#FCAB2D"/>
<line x1="0.5" y1="-0.5" x2="8.9359" y2="-0.5" transform="matrix(0.207911 0.978148 -0.978148 0.207912 12.5884 12.6621)" stroke="#FCAB2D" stroke-linecap="round"/>
<line x1="0.5" y1="-0.5" x2="1.85897" y2="-0.5" transform="matrix(0.207911 0.978148 -0.978147 0.207913 11.1172 5.73828)" stroke="#FCAB2D" stroke-linecap="round"/>
<defs>
<filter id="filter0_f" x="1.97461" y="31.7441" width="27.5897" height="8.71795" filterUnits="userSpaceOnUse" color-interpolation-filters="sRGB">
<feFlood flood-opacity="0" result="BackgroundImageFix"/>
<feBlend mode="normal" in="SourceGraphic" in2="BackgroundImageFix" result="shape"/>
<feGaussianBlur stdDeviation="1" result="effect1_foregroundBlur"/>
</filter>
</defs>
</svg>
