<svg width="25" height="34" viewBox="0 0 25 34" fill="none" xmlns="http://www.w3.org/2000/svg">
<g filter="url(#filter0_f)">
<ellipse cx="13" cy="30" rx="10" ry="2" fill="#16434B" fill-opacity="0.2"/>
</g>
<path fill-rule="evenodd" clip-rule="evenodd" d="M10.9948 30C10.8289 30 10.6629 29.9565 10.5384 29.8259L3.23621 19.6445C1.16172 17.4678 0 14.5946 0 11.5037C0 8.45638 1.16172 5.53963 3.23621 3.36296C7.55115 -1.12099 14.5215 -1.12099 18.7949 3.36296C23.0684 7.89044 23.0684 15.2041 18.7949 19.688L11.4512 29.8259C11.3267 29.9565 11.1608 30 10.9948 30ZM11 19C15.4183 19 19 15.4183 19 11C19 6.58172 15.4183 3 11 3C6.58172 3 3 6.58172 3 11C3 15.4183 6.58172 19 11 19Z" fill="url(#paint0_linear)"/>
<path fill-rule="evenodd" clip-rule="evenodd" d="M9.75317 5.13144C6.99134 5.71848 5.04441 8.27547 4.92072 10.8038C4.9072 11.0801 4.93669 11.3311 4.98189 11.5428C5.07267 11.9677 5.5118 12.167 5.93686 12.0767L16.0644 9.92398C16.4895 9.83363 16.8096 9.47297 16.7197 9.04782C16.6749 8.83609 16.5997 8.5948 16.475 8.34788C15.3336 6.08843 12.515 4.54439 9.75317 5.13144ZM11.3577 5.8129C12.0083 5.67461 14.5286 6.56768 15.3422 8.06277C15.39 8.15059 15.4272 8.23756 15.4559 8.32114C15.593 8.71957 15.2694 9.0708 14.8573 9.1584L13.8957 9.36279C13.498 9.44733 13.0883 9.28305 12.8651 8.94315C12.6921 8.67962 12.4965 8.37538 12.3666 8.15431C12.1398 7.76837 11.9085 7.42438 11.7081 7.12638C11.2005 6.37175 10.8913 5.91204 11.3577 5.8129ZM11.4587 8.34718C10.7115 6.81777 10.2575 6.04664 9.96068 6.10973C9.66387 6.17282 9.57564 6.70275 9.50239 8.763C9.49255 9.03968 9.48216 9.27038 9.47154 9.46246C9.44105 10.014 9.76313 10.2411 10.3034 10.1262L11.2815 9.91835C11.8217 9.80353 12.0236 9.4651 11.7714 8.97373C11.6836 8.80255 11.5802 8.59599 11.4587 8.34718ZM8.49359 6.42172C7.84299 6.56001 5.90384 8.40096 5.76867 10.0977C5.76073 10.1974 5.76219 10.2919 5.76992 10.38C5.80676 10.7997 6.24518 10.989 6.65731 10.9014L7.6189 10.697C8.01661 10.6125 8.32412 10.2957 8.38972 9.89446C8.44059 9.58334 8.49556 9.22584 8.52429 8.97105C8.57446 8.52625 8.6459 8.1179 8.70779 7.76414C8.86453 6.86831 8.96 6.32258 8.49359 6.42172Z" fill="#228596"/>
<path d="M4.92072 10.8038L5.0206 10.8087L4.92072 10.8038ZM4.98189 11.5428L4.8841 11.5636L4.8841 11.5636L4.98189 11.5428ZM16.7197 9.04782L16.8175 9.02712L16.7197 9.04782ZM16.475 8.34788L16.3857 8.39297L16.3857 8.39297L16.475 8.34788ZM15.3422 8.06277L15.4301 8.01497L15.4301 8.01497L15.3422 8.06277ZM15.4559 8.32114L15.3613 8.35367L15.4559 8.32114ZM14.8573 9.1584L14.8365 9.06059L14.8573 9.1584ZM13.8957 9.36279L13.9165 9.46061L13.8957 9.36279ZM12.8651 8.94315L12.7815 8.99803L12.8651 8.94315ZM12.3666 8.15431L12.2804 8.20496L12.3666 8.15431ZM11.7081 7.12638L11.6251 7.18219L11.7081 7.12638ZM11.4587 8.34718L11.5485 8.30328L11.4587 8.34718ZM9.50239 8.763L9.40245 8.75945L9.50239 8.763ZM9.47154 9.46246L9.37169 9.45694L9.47154 9.46246ZM10.3034 10.1262L10.3242 10.2241L10.3034 10.1262ZM11.2815 9.91835L11.2607 9.82054L11.2815 9.91835ZM11.7714 8.97373L11.6824 9.01938L11.7714 8.97373ZM5.76867 10.0977L5.66899 10.0898L5.76867 10.0977ZM5.76992 10.38L5.86954 10.3713L5.76992 10.38ZM8.38972 9.89446L8.29103 9.87832L8.38972 9.89446ZM8.52429 8.97105L8.62366 8.98226L8.62366 8.98226L8.52429 8.97105ZM8.70779 7.76414L8.60929 7.74691L8.70779 7.76414ZM5.0206 10.8087C5.1422 8.32297 7.05914 5.8063 9.77396 5.22925L9.73238 5.03362C6.92354 5.63066 4.94661 8.22797 4.82084 10.7989L5.0206 10.8087ZM5.07968 11.5219C5.03598 11.3172 5.00757 11.075 5.0206 10.8087L4.82084 10.7989C4.80683 11.0852 4.83739 11.345 4.8841 11.5636L5.07968 11.5219ZM5.91607 11.9788C5.52742 12.0615 5.15551 11.8768 5.07968 11.5219L4.8841 11.5636C4.98983 12.0586 5.49619 12.2726 5.95765 12.1745L5.91607 11.9788ZM16.0436 9.82617L5.91607 11.9788L5.95765 12.1745L16.0852 10.0218L16.0436 9.82617ZM16.6218 9.06851C16.6969 9.42362 16.4323 9.74356 16.0436 9.82617L16.0852 10.0218C16.5467 9.92371 16.9222 9.52231 16.8175 9.02712L16.6218 9.06851ZM16.3857 8.39297C16.506 8.63095 16.5785 8.8638 16.6218 9.06851L16.8175 9.02712C16.7712 8.80837 16.6935 8.55866 16.5643 8.30279L16.3857 8.39297ZM9.77396 5.22925C12.4888 4.6522 15.2636 6.1716 16.3857 8.39297L16.5643 8.30279C15.4037 6.00526 12.5412 4.43658 9.73238 5.03362L9.77396 5.22925ZM15.4301 8.01497C15.0085 7.24033 14.1528 6.63167 13.3324 6.23527C12.9204 6.03621 12.5127 5.88843 12.1653 5.79901C11.8231 5.71092 11.524 5.67532 11.3369 5.71508L11.3785 5.91071C11.5168 5.88132 11.7767 5.9055 12.1154 5.99269C12.449 6.07855 12.8442 6.22155 13.2453 6.41535C14.0511 6.8047 14.8623 7.39012 15.2544 8.11057L15.4301 8.01497ZM15.5505 8.28861C15.52 8.20017 15.4807 8.10805 15.4301 8.01497L15.2544 8.11057C15.2993 8.19314 15.3343 8.27495 15.3613 8.35367L15.5505 8.28861ZM14.8781 9.25622C15.1042 9.20816 15.31 9.08721 15.4416 8.91763C15.5749 8.74574 15.6313 8.52351 15.5505 8.28861L15.3613 8.35367C15.4176 8.51721 15.3807 8.6698 15.2835 8.79503C15.1846 8.92257 15.0226 9.02104 14.8365 9.06059L14.8781 9.25622ZM13.9165 9.46061L14.8781 9.25622L14.8365 9.06059L13.8749 9.26498L13.9165 9.46061ZM12.7815 8.99803C13.0277 9.37307 13.4793 9.55354 13.9165 9.46061L13.8749 9.26498C13.5167 9.34112 13.1488 9.19303 12.9487 8.88827L12.7815 8.99803ZM12.2804 8.20496C12.4116 8.42837 12.6084 8.73441 12.7815 8.99803L12.9487 8.88827C12.7758 8.62483 12.5813 8.3224 12.4528 8.10365L12.2804 8.20496ZM11.6251 7.18219C11.8256 7.48038 12.0554 7.822 12.2804 8.20496L12.4528 8.10365C12.2243 7.71474 11.9913 7.36839 11.791 7.07057L11.6251 7.18219ZM11.3369 5.71508C11.2049 5.74315 11.0987 5.80328 11.052 5.91538C11.0083 6.02043 11.0304 6.14157 11.0739 6.25869C11.1616 6.49434 11.3748 6.81006 11.6251 7.18219L11.791 7.07057C11.5338 6.68807 11.3386 6.39662 11.2614 6.18897C11.2225 6.08444 11.2231 6.0249 11.2366 5.99229C11.2473 5.96672 11.2774 5.93221 11.3785 5.91071L11.3369 5.71508ZM9.98148 6.20755C10.0067 6.2022 10.058 6.21012 10.1476 6.29162C10.234 6.37024 10.3364 6.49997 10.4569 6.6857C10.6972 7.05608 10.9952 7.62616 11.3688 8.39107L11.5485 8.30328C11.1751 7.53879 10.8724 6.95861 10.6247 6.57684C10.5012 6.3865 10.3877 6.23969 10.2822 6.14368C10.1798 6.05054 10.0631 5.98573 9.93989 6.01192L9.98148 6.20755ZM9.60233 8.76655C9.639 7.73508 9.67929 7.09444 9.74626 6.70435C9.77985 6.5087 9.8187 6.38583 9.86127 6.31031C9.9011 6.23966 9.94042 6.21628 9.98148 6.20755L9.93989 6.01192C9.83254 6.03474 9.74953 6.10125 9.68705 6.21209C9.62731 6.31806 9.58387 6.46827 9.54914 6.67051C9.47949 7.07622 9.43903 7.73067 9.40245 8.75945L9.60233 8.76655ZM9.57139 9.46798C9.58205 9.27511 9.59247 9.04373 9.60233 8.76655L9.40245 8.75945C9.39264 9.03562 9.38227 9.26565 9.37169 9.45694L9.57139 9.46798ZM10.2826 10.0284C10.0262 10.0829 9.8457 10.0509 9.73455 9.96508C9.62606 9.88132 9.55716 9.72533 9.57139 9.46798L9.37169 9.45694C9.35543 9.75109 9.43232 9.98442 9.61233 10.1234C9.78966 10.2603 10.0403 10.2844 10.3242 10.2241L10.2826 10.0284ZM11.2607 9.82054L10.2826 10.0284L10.3242 10.2241L11.3023 10.0162L11.2607 9.82054ZM11.6824 9.01938C11.8001 9.24867 11.8006 9.41917 11.7356 9.53979C11.6689 9.66337 11.517 9.76605 11.2607 9.82054L11.3023 10.0162C11.5861 9.95583 11.8053 9.83189 11.9116 9.6347C12.0195 9.43456 11.9949 9.19015 11.8604 8.92808L11.6824 9.01938ZM11.3688 8.39107C11.4906 8.64033 11.5942 8.8475 11.6824 9.01938L11.8604 8.92808C11.7729 8.7576 11.6699 8.55164 11.5485 8.30328L11.3688 8.39107ZM5.86836 10.1057C5.93349 9.28803 6.43644 8.42329 7.01421 7.73986C7.30181 7.39966 7.60472 7.10826 7.87452 6.89416C8.14851 6.67673 8.37612 6.54893 8.51438 6.51954L8.4728 6.32391C8.28575 6.36366 8.02699 6.51784 7.75019 6.7375C7.46919 6.9605 7.15688 7.26131 6.86148 7.61074C6.27323 8.30655 5.73902 9.21066 5.66899 10.0898L5.86836 10.1057ZM5.86954 10.3713C5.86226 10.2883 5.86089 10.1994 5.86836 10.1057L5.66899 10.0898C5.66057 10.1954 5.66212 10.2956 5.6703 10.3887L5.86954 10.3713ZM6.63652 10.8036C6.45047 10.8431 6.2624 10.8191 6.12012 10.7428C5.98042 10.6679 5.88466 10.5435 5.86954 10.3713L5.6703 10.3887C5.69202 10.6362 5.83388 10.8163 6.02564 10.9191C6.21481 11.0205 6.45202 11.0473 6.6781 10.9992L6.63652 10.8036ZM7.59811 10.5992L6.63652 10.8036L6.6781 10.9992L7.63969 10.7948L7.59811 10.5992ZM8.29103 9.87832C8.23221 10.2381 7.95631 10.5231 7.59811 10.5992L7.63969 10.7948C8.07692 10.7019 8.41603 10.3533 8.48841 9.91059L8.29103 9.87832ZM8.42492 8.95984C8.39649 9.21194 8.34188 9.56731 8.29103 9.87832L8.48841 9.91059C8.53929 9.59937 8.59462 9.23973 8.62366 8.98226L8.42492 8.95984ZM8.60929 7.74691C8.54744 8.10044 8.47548 8.51161 8.42492 8.95984L8.62366 8.98226C8.67344 8.54089 8.74437 8.13536 8.8063 7.78138L8.60929 7.74691ZM8.51438 6.51954C8.61553 6.49804 8.65705 6.51733 8.67718 6.53635C8.70285 6.56062 8.72757 6.61479 8.73457 6.72609C8.74847 6.9472 8.68873 7.29284 8.60929 7.74691L8.8063 7.78138C8.88359 7.33961 8.94995 6.96447 8.93417 6.71354C8.92633 6.58883 8.89726 6.46917 8.81456 6.391C8.7263 6.30759 8.60485 6.29584 8.4728 6.32391L8.51438 6.51954Z" fill="#228596"/>
<line x1="10.8963" y1="10.5101" x2="12.3516" y2="17.3572" stroke="#228596" stroke-linecap="round"/>
<line x1="9.64869" y1="4.64293" x2="9.85661" y2="5.62108" stroke="#228596" stroke-linecap="round"/>
<defs>
<filter id="filter0_f" x="1" y="26" width="24" height="8" filterUnits="userSpaceOnUse" color-interpolation-filters="sRGB">
<feFlood flood-opacity="0" result="BackgroundImageFix"/>
<feBlend mode="normal" in="SourceGraphic" in2="BackgroundImageFix" result="shape"/>
<feGaussianBlur stdDeviation="1" result="effect1_foregroundBlur"/>
</filter>
<linearGradient id="paint0_linear" x1="11" y1="0" x2="11" y2="30" gradientUnits="userSpaceOnUse">
<stop stop-color="#317D9B"/>
<stop offset="1" stop-color="#3EA5A9"/>
</linearGradient>
</defs>
</svg>
