<svg width="116" height="19" viewBox="0 0 116 19" fill="none" xmlns="http://www.w3.org/2000/svg">
<path d="M0.8 18V0.839999H5V7.704H11.24V0.839999H15.44V18H11.24V11.28H5V18H0.8ZM17.5743 14.52C17.5743 13.736 17.7903 13.056 18.2223 12.48C18.6543 11.904 19.2223 11.464 19.9263 11.16C20.6463 10.856 21.3903 10.64 22.1583 10.512C22.9263 10.368 23.7263 10.296 24.5583 10.296H24.9183V10.08C24.9183 9.168 24.3343 8.712 23.1663 8.712C22.0783 8.712 20.9423 9.104 19.7583 9.888L18.3183 6.96C18.8783 6.528 19.6463 6.152 20.6223 5.832C21.6143 5.512 22.5903 5.352 23.5503 5.352C25.2623 5.352 26.6063 5.8 27.5823 6.696C28.5743 7.592 29.0703 8.824 29.0703 10.392V18H25.2783V17.256L25.3263 16.488H25.2783C24.8783 17.048 24.3423 17.488 23.6703 17.808C23.0143 18.128 22.3263 18.288 21.6063 18.288C20.4223 18.288 19.4543 17.928 18.7023 17.208C17.9503 16.488 17.5743 15.592 17.5743 14.52ZM21.6783 14.136C21.6783 14.44 21.7823 14.696 21.9903 14.904C22.1983 15.096 22.4863 15.192 22.8543 15.192C23.4303 15.192 23.9263 14.96 24.3423 14.496C24.7583 14.032 24.9663 13.536 24.9663 13.008V12.672H24.5823C23.8143 12.672 23.1343 12.792 22.5423 13.032C21.9663 13.256 21.6783 13.624 21.6783 14.136ZM31.7045 18V5.64H35.6165V14.52H38.4005V5.64H42.3125V14.52H45.0965V5.64H49.0085V18H31.7045Z" fill="#228596"/>
<path d="M52.1984 18V0.839999H66.6944V18H62.4944V4.416H56.3984V18H52.1984ZM68.8081 18.12V14.496C69.0641 14.464 69.2881 14.416 69.4801 14.352C69.6721 14.272 69.8801 14.136 70.1041 13.944C70.3281 13.736 70.5041 13.464 70.6321 13.128C70.7761 12.792 70.8961 12.328 70.9921 11.736C71.0881 11.128 71.1361 10.416 71.1361 9.6V5.64H81.2641V18H77.1121V8.928H75.0481V9.624C75.0481 12.344 74.5761 14.44 73.6321 15.912C72.6881 17.384 71.0801 18.12 68.8081 18.12ZM82.8644 18L85.3604 14.256L85.9364 13.512V13.488C85.2644 13.152 84.7204 12.656 84.3044 12C83.9044 11.328 83.7044 10.6 83.7044 9.816C83.7044 8.52 84.1044 7.504 84.9044 6.768C85.7044 6.016 86.7924 5.64 88.1684 5.64H94.6484V18H90.4964V14.232H89.6324L87.2564 18H82.8644ZM89.5124 11.472H90.4964V8.208H89.4884C88.3844 8.208 87.8324 8.736 87.8324 9.792C87.8324 10.912 88.3924 11.472 89.5124 11.472ZM96.1993 18L99.6793 11.616V11.568L96.4633 5.64H100.735L103.015 10.032H104.119V5.64H107.983V10.032H109.111L111.391 5.64H115.663L112.447 11.568V11.616L115.927 18H111.439L109.231 13.512H107.983V18H104.119V13.512H102.895L100.687 18H96.1993Z" fill="#FCAB2D"/>
</svg>
