<svg width="18" height="22" viewBox="0 0 18 22" fill="none" xmlns="http://www.w3.org/2000/svg">
<path d="M0 4C0 1.79086 1.79086 0 4 0H14C16.2091 0 18 1.79086 18 4V14C18 16.2091 16.2091 18 14 18H11.193C10.7762 18 10.403 18.2586 10.2567 18.6489L9 22L7.74333 18.6489C7.59696 18.2586 7.22384 18 6.807 18H4C1.79086 18 0 16.2091 0 14V4Z" fill="#115C91"/>
<path d="M6.204 14V4.06H10.04C10.9733 4.06 11.734 4.35867 12.322 4.956C12.91 5.55333 13.204 6.33267 13.204 7.294C13.204 8.25533 12.91 9.044 12.322 9.66C11.734 10.2667 10.9733 10.57 10.04 10.57H8.01V14H6.204ZM8.01 9.002H9.704C10.2267 9.002 10.6327 8.848 10.922 8.54C11.2207 8.232 11.37 7.81667 11.37 7.294C11.37 6.78067 11.2207 6.37467 10.922 6.076C10.6327 5.768 10.236 5.614 9.732 5.614H8.01V9.002Z" fill="white"/>
</svg>
