<svg width="27" height="33" viewBox="0 0 27 33" fill="none" xmlns="http://www.w3.org/2000/svg">
<path d="M0 4C0 1.79086 1.79086 0 4 0H23C25.2091 0 27 1.79086 27 4V23C27 25.2091 25.2091 27 23 27H16.443C16.0262 27 15.653 27.2586 15.5067 27.6489L13.5 33L11.4933 27.6489C11.347 27.2586 10.9738 27 10.557 27H4C1.79086 27 0 25.2091 0 23V4Z" fill="#115C91"/>
<path d="M9.548 20V7.22H14.48C15.68 7.22 16.658 7.604 17.414 8.372C18.17 9.14 18.548 10.142 18.548 11.378C18.548 12.614 18.17 13.628 17.414 14.42C16.658 15.2 15.68 15.59 14.48 15.59H11.87V20H9.548ZM11.87 13.574H14.048C14.72 13.574 15.242 13.376 15.614 12.98C15.998 12.584 16.19 12.05 16.19 11.378C16.19 10.718 15.998 10.196 15.614 9.812C15.242 9.416 14.732 9.218 14.084 9.218H11.87V13.574Z" fill="white"/>
</svg>
