<svg width="24" height="27" viewBox="0 0 24 27" fill="none" xmlns="http://www.w3.org/2000/svg">
<path d="M8.20394 21.881L8.30806 21.9851L8.4496 21.9445C8.6642 21.883 8.89112 21.85 9.12617 21.85C10.4793 21.85 11.5762 22.9469 11.5762 24.3C11.5762 25.6531 10.4793 26.75 9.12617 26.75C7.77307 26.75 6.67617 25.6531 6.67617 24.3C6.67617 24.0954 6.70118 23.8971 6.74819 23.7077L6.78222 23.5706L6.68233 23.4707L1.97971 18.768C-0.326569 16.4618 -0.326569 12.7226 1.97971 10.4163C4.28598 8.11001 8.02519 8.11001 10.3315 10.4163L15.0475 15.1323C16.4631 16.5479 18.7583 16.5479 20.174 15.1323C21.5896 13.7166 21.5896 11.4214 20.174 10.0057L14.7029 4.53471L14.2762 4.10794V4.71149V6.75C14.2762 7.35751 13.7837 7.85 13.1762 7.85C12.5687 7.85 12.0762 7.35751 12.0762 6.75V1.35C12.0762 0.742487 12.5687 0.25 13.1762 0.25H18.5762C19.1837 0.25 19.6762 0.742487 19.6762 1.35C19.6762 1.95751 19.1837 2.45 18.5762 2.45H16.3331H15.7295L16.1563 2.87678L21.7296 8.45011C24.0044 10.7249 24.0044 14.4131 21.7296 16.6879C19.4548 18.9627 15.7666 18.9627 13.4918 16.6879L8.77583 11.9719C7.32871 10.5248 4.98246 10.5248 3.53534 11.9719C2.08822 13.419 2.08822 15.7653 3.53534 17.2124L8.20394 21.881Z" fill="white" stroke="#228596" stroke-width="0.5"/>
</svg>
