<svg width="17" height="17" viewBox="0 0 17 17" fill="none" xmlns="http://www.w3.org/2000/svg">
<path fill-rule="evenodd" clip-rule="evenodd" d="M8.5 0C7.67157 0 7 0.671572 7 1.5L7.00001 7.00001L1.5 7C0.671572 7 0 7.67157 0 8.49999C0 9.32842 0.67157 9.99999 1.5 9.99999L7.00001 10L7.00002 15.5C7.00002 16.3284 7.67159 17 8.50002 17C9.32844 17 10 16.3284 10 15.5L10 10L15.5 10C16.3284 10 17 9.32844 17 8.50002C17 7.67159 16.3284 7.00002 15.5 7.00002L10 7.00001L10 1.5C9.99999 0.671571 9.32842 0 8.5 0Z" fill="#FCAB2D"/>
</svg>
