<svg width="24" height="24" viewBox="0 0 24 24" fill="none" xmlns="http://www.w3.org/2000/svg">
<path d="M16.7729 15.3577C16.3824 14.9672 15.7492 14.9672 15.3587 15.3577C14.9682 15.7482 14.9682 16.3814 15.3587 16.7719L16.7729 15.3577ZM22.2938 23.707C22.6843 24.0975 23.3175 24.0975 23.708 23.707C24.0985 23.3165 24.0985 22.6833 23.708 22.2928L22.2938 23.707ZM9.60908 19.2182C14.916 19.2182 19.2182 14.916 19.2182 9.60908H17.2182C17.2182 13.8115 13.8115 17.2182 9.60908 17.2182V19.2182ZM19.2182 9.60908C19.2182 4.30213 14.916 0 9.60908 0V2C13.8115 2 17.2182 5.4067 17.2182 9.60908H19.2182ZM9.60908 0C4.30213 0 0 4.30213 0 9.60908H2C2 5.4067 5.4067 2 9.60908 2V0ZM0 9.60908C0 14.916 4.30213 19.2182 9.60908 19.2182V17.2182C5.4067 17.2182 2 13.8115 2 9.60908H0ZM15.3587 16.7719L22.2938 23.707L23.708 22.2928L16.7729 15.3577L15.3587 16.7719ZM23.708 22.2928L16.7729 15.3577L15.3587 16.7719L22.2938 23.707L23.708 22.2928Z" fill="white"/>
</svg>
