<svg width="32" height="38" viewBox="0 0 32 38" fill="none" xmlns="http://www.w3.org/2000/svg">
<path d="M22.3302 27.5L23.4233 35.3067C23.5293 36.0641 22.7804 36.6554 22.0683 36.3765L16.0001 34L9.93193 36.3765C9.21978 36.6554 8.47088 36.0641 8.57693 35.3067L9.66997 27.5" stroke="white" stroke-width="2"/>
<circle cx="16" cy="16" r="5" stroke="white" stroke-width="2"/>
<path d="M13.2443 4.39851L12.5151 3.71427L13.2443 4.39851L16 1.46149L18.7557 4.39851C19.2246 4.89827 19.9167 5.12315 20.5898 4.99445L24.5455 4.2381L25.0486 8.23394C25.1342 8.91387 25.5619 9.50263 26.1821 9.79414L29.8269 11.5074L27.8852 15.0357C27.5548 15.6361 27.5548 16.3639 27.8852 16.9643L29.8269 20.4926L26.1821 22.2059C25.5619 22.4974 25.1342 23.0861 25.0486 23.7661L24.5455 27.7619L20.5898 27.0055C19.9167 26.8768 19.2246 27.1017 18.7557 27.6015L16 30.5385L13.2443 27.6015C12.7754 27.1017 12.0833 26.8768 11.4102 27.0055L7.45448 27.7619L6.95143 23.7661C6.86583 23.0861 6.43807 22.4974 5.81788 22.2059L5.39248 23.1109L5.81787 22.2059L2.17305 20.4926L4.11478 16.9643C4.44518 16.3639 4.44518 15.6361 4.11478 15.0357L2.17305 11.5074L5.81787 9.79414C6.43807 9.50263 6.86583 8.91386 6.95143 8.23394L7.45448 4.2381L11.4102 4.99445C12.0833 5.12316 12.7754 4.89827 13.2443 4.39851Z" stroke="white" stroke-width="2"/>
</svg>
