<svg width="14" height="13" viewBox="0 0 14 13" fill="none" xmlns="http://www.w3.org/2000/svg">
<path d="M6.62703 0.962305C6.75904 0.62171 7.24096 0.621709 7.37297 0.962304L8.67602 4.32436C8.73278 4.47079 8.86996 4.57046 9.02676 4.57919L12.6269 4.77954C12.9917 4.79983 13.1406 5.25817 12.8574 5.48896L10.0626 7.76717C9.94088 7.8664 9.88848 8.02767 9.92863 8.1795L10.8506 11.6654C10.944 12.0185 10.5541 12.3018 10.2471 12.1038L7.21677 10.1498C7.08479 10.0647 6.91521 10.0647 6.78323 10.1498L3.75287 12.1038C3.44588 12.3018 3.05599 12.0185 3.14939 11.6654L4.07137 8.1795C4.11152 8.02767 4.05912 7.8664 3.9374 7.76717L1.14256 5.48896C0.859424 5.25817 1.00835 4.79983 1.37306 4.77954L4.97324 4.57919C5.13004 4.57046 5.26722 4.47079 5.32398 4.32436L6.62703 0.962305Z" fill="#FEE6C0"/>
</svg>
