<svg width="34" height="36" viewBox="0 0 34 36" fill="none" xmlns="http://www.w3.org/2000/svg">
<path d="M12.0297 20.9663C11.071 19.5265 10.7457 17.6825 11.2995 15.902C12.2748 12.7663 15.6074 11.015 18.743 11.9903C21.8787 12.9656 23.63 16.2982 22.6547 19.4338C22.4565 20.0712 22.1608 20.6513 21.7893 21.163" stroke="white" stroke-width="2" stroke-linecap="round"/>
<line x1="12.1153" y1="7.67756" x2="11.0577" y2="5.28936" stroke="white" stroke-width="2" stroke-linecap="round"/>
<path d="M7.8789 21.2783L4.68164 22.9126" stroke="white" stroke-width="2" stroke-linecap="round"/>
<path d="M7.18639 14.0191L1.43217 11.5991" stroke="white" stroke-width="2" stroke-linecap="round"/>
<path d="M20.4014 7.1189L22.108 1.7757" stroke="white" stroke-width="2" stroke-linecap="round"/>
<path d="M26.5371 12.5205L30.7742 10.4301" stroke="white" stroke-width="2" stroke-linecap="round"/>
<path d="M26.521 20.1657L31.2873 22.1711" stroke="white" stroke-width="2" stroke-linecap="round"/>
<path d="M21.7598 28.9741L17.0709 33.6636" stroke="white" stroke-width="2" stroke-linecap="round"/>
<path d="M12.3779 28.9741L17.0675 33.6637" stroke="white" stroke-width="2" stroke-linecap="round"/>
<path d="M17.0693 23.1113L17.0693 33.6628" stroke="white" stroke-width="2" stroke-linecap="round"/>
</svg>
