<svg width="62" height="62" viewBox="0 0 62 62" fill="none" xmlns="http://www.w3.org/2000/svg">
<g filter="url(#filter0_d)">
<path d="M2 27C2 13.1929 13.1929 2 27 2C40.8071 2 52 13.1929 52 27C52 40.8071 40.8071 52 27 52C13.1929 52 2 40.8071 2 27Z" fill="#FF8C00"/>
</g>
<path d="M22.0297 30.9663C21.071 29.5265 20.7457 27.6825 21.2995 25.902C22.2748 22.7663 25.6074 21.015 28.743 21.9903C31.8787 22.9656 33.63 26.2982 32.6547 29.4338C32.4565 30.0712 32.1608 30.6513 31.7893 31.163" stroke="white" stroke-width="2" stroke-linecap="round"/>
<line x1="22.1153" y1="17.6776" x2="21.0577" y2="15.2894" stroke="white" stroke-width="2" stroke-linecap="round"/>
<path d="M17.8789 31.2783L14.6816 32.9126" stroke="white" stroke-width="2" stroke-linecap="round"/>
<path d="M17.1864 24.0191L11.4322 21.5991" stroke="white" stroke-width="2" stroke-linecap="round"/>
<path d="M30.4014 17.1189L32.108 11.7757" stroke="white" stroke-width="2" stroke-linecap="round"/>
<path d="M36.5371 22.5205L40.7742 20.4301" stroke="white" stroke-width="2" stroke-linecap="round"/>
<path d="M36.521 30.1657L41.2873 32.1711" stroke="white" stroke-width="2" stroke-linecap="round"/>
<path d="M31.7598 38.9741L27.0709 43.6636" stroke="white" stroke-width="2" stroke-linecap="round"/>
<path d="M22.3779 38.9741L27.0675 43.6637" stroke="white" stroke-width="2" stroke-linecap="round"/>
<path d="M27.0693 33.1113L27.0693 43.6628" stroke="white" stroke-width="2" stroke-linecap="round"/>
<defs>
<filter id="filter0_d" x="0" y="0" width="62" height="62" filterUnits="userSpaceOnUse" color-interpolation-filters="sRGB">
<feFlood flood-opacity="0" result="BackgroundImageFix"/>
<feColorMatrix in="SourceAlpha" type="matrix" values="0 0 0 0 0 0 0 0 0 0 0 0 0 0 0 0 0 0 127 0"/>
<feOffset dx="4" dy="4"/>
<feGaussianBlur stdDeviation="3"/>
<feColorMatrix type="matrix" values="0 0 0 0 0 0 0 0 0 0 0 0 0 0 0 0 0 0 0.1 0"/>
<feBlend mode="normal" in2="BackgroundImageFix" result="effect1_dropShadow"/>
<feBlend mode="normal" in="SourceGraphic" in2="effect1_dropShadow" result="shape"/>
</filter>
</defs>
</svg>
