<svg width="52" height="40" viewBox="0 0 52 40" fill="none" xmlns="http://www.w3.org/2000/svg">
<path d="M3.01733 22.9101C3.01733 22.9101 6.08345 24.3215 8.18726 24.4738C12.1899 24.7637 13.8023 21.0898 17.8091 20.8656C21.5125 20.6585 23.7016 23.4558 26.9498 23.3974C30.9553 23.3255 33.4447 20.0821 37.0527 19.7893C41.6232 19.4183 50.8842 25.0752 50.8842 25.0752" stroke="#228596" stroke-width="2" stroke-linecap="round"/>
<path d="M20.2681 17.5653C20.6043 17.0018 20.8555 16.3745 21.0008 15.6973C21.7156 12.3655 19.5941 9.08513 16.2623 8.37037C12.9305 7.6556 9.65006 9.77713 8.9353 13.1089C8.52943 15.0008 9.03807 16.8761 10.1635 18.2746C10.5241 18.7226 10.9479 19.1217 11.4253 19.4566" stroke="#FCAB2D" stroke-width="2" stroke-linecap="round"/>
<line x1="9.78571" y1="6.85563" x2="8.806" y2="5.09215" stroke="#FCAB2D" stroke-width="2" stroke-linecap="round"/>
<path d="M7.3535 19.0363L4.70801 20.7051" stroke="#FCAB2D" stroke-width="2" stroke-linecap="round"/>
<path d="M6.18216 12.7922L1.00019 11.1445" stroke="#FCAB2D" stroke-width="2" stroke-linecap="round"/>
<path d="M17.1074 5.76953L18.1687 1.00012" stroke="#FCAB2D" stroke-width="2" stroke-linecap="round"/>
<path d="M22.8516 9.97461L26.3634 7.82852" stroke="#FCAB2D" stroke-width="2" stroke-linecap="round"/>
<path d="M23.4372 16.6088L27.7295 17.9745" stroke="#FCAB2D" stroke-width="2" stroke-linecap="round"/>
<path d="M42.433 31.9826C42.433 31.9826 38.6401 28.489 34.6367 28.6346C30.6331 28.7801 29.4587 31.3551 26.8131 31.2844C23.1053 31.1854 22.8394 27.7506 19.1696 27.211C16.8971 26.8769 9.75146 30.5221 9.75146 30.5221" stroke="#228596" stroke-width="2" stroke-linecap="round"/>
<path d="M15.7642 37.2299C20.3345 34.2231 22.0278 38.0484 24.5819 38.7417C27.4309 39.5151 28.8743 34.223 33.6851 37.8312" stroke="#228596" stroke-width="2" stroke-linecap="round"/>
</svg>
