<svg width="24" height="11" viewBox="0 0 24 11" fill="none" xmlns="http://www.w3.org/2000/svg">
<circle cx="3" cy="8" r="2" stroke="#FCAB2D" stroke-width="2"/>
<path d="M23 5.5114C22.6499 5.25997 22.2877 5 21.571 5C20.8544 5 20.4923 5.25997 20.1422 5.5114C19.7922 5.76267 19.4618 6 18.7858 6C18.1097 6 17.7791 5.76267 17.4292 5.5114C17.079 5.25997 16.7168 5 16.0002 5C15.2835 5 14.9213 5.25997 14.5712 5.5114C14.2212 5.76267 13.8906 6 13.2146 6C12.5385 6 12.2079 5.76267 11.858 5.5114C11.5078 5.25997 11.1456 5 10.429 5C9.71232 5 9.35014 5.25997 9 5.5114" stroke="#228596" stroke-width="1.6" stroke-linecap="round"/>
<path d="M23 9.5114C22.6499 9.25997 22.2877 9 21.571 9C20.8544 9 20.4923 9.25997 20.1422 9.5114C19.7922 9.76267 19.4618 10 18.7858 10C18.1097 10 17.7791 9.76267 17.4292 9.5114C17.079 9.25997 16.7168 9 16.0002 9C15.2835 9 14.9213 9.25997 14.5712 9.5114C14.2212 9.76267 13.8906 10 13.2146 10C12.5385 10 12.2079 9.76267 11.858 9.5114C11.5078 9.25997 11.1456 9 10.429 9C9.71232 9 9.35014 9.25997 9 9.5114" stroke="#228596" stroke-width="1.6" stroke-linecap="round"/>
<path d="M23 1.5114C22.658 1.25997 22.3042 1 21.6042 1C20.9042 1 20.5506 1.25997 20.2086 1.5114C19.8667 1.76267 19.544 2 18.8836 2C18.2233 2 17.9004 1.76267 17.5585 1.5114C17.2165 1.25997 16.8627 1 16.1627 1C15.4627 1 15.1089 1.25997 14.7669 1.5114C14.4251 1.76267 14.1022 2 13.4418 2C12.7815 2 12.4585 1.76267 12.1167 1.5114C11.7747 1.25997 11.4209 1 10.7209 1C10.0209 1 9.34201 1.24858 9 1.5" stroke="#228596" stroke-width="1.6" stroke-linecap="round"/>
<path d="M2 1C2 0.447715 2.44772 0 3 0C3.55228 0 4 0.447715 4 1V6C4 6 3.39052 5.8 3 5.8C2.60948 5.8 2 6 2 6V1Z" fill="#FCAB2D"/>
</svg>
