<svg width="27" height="15" viewBox="0 0 27 15" fill="none" xmlns="http://www.w3.org/2000/svg">
<circle cx="3.5" cy="11.5" r="2.5" stroke="#FCAB2D" stroke-width="2"/>
<path d="M26.0001 7C26.0001 7 25.5001 7 24.4525 7.7671C23.9918 8.14401 23.5569 8.5 22.667 8.5C21.7771 8.5 21.3419 8.14401 20.8813 7.7671C20.4204 7.38996 19.9436 7 19.0003 7C18.0569 7 17.5802 7.38996 17.1193 7.7671C16.6586 8.14401 16.2234 8.5 15.3335 8.5C14.4436 8.5 14.0085 8.14401 13.5478 7.7671C13.0869 7.38996 12.6101 7 11.6668 7C11 7 10.4609 7.38996 10 7.7671" stroke="#228596" stroke-width="2" stroke-linecap="round"/>
<path d="M26.0001 12C26.0001 12 25.39 11.9999 24.4525 12.7671C23.9918 13.144 23.5568 13.5 22.6669 13.5C21.777 13.5 21.3419 13.144 20.8812 12.7671C20.4203 12.39 19.9436 12 19.0002 12C18.0568 12 17.5801 12.39 17.1192 12.7671C16.6585 13.144 16.2234 13.5 15.3335 13.5C14.4436 13.5 14.0084 13.144 13.5477 12.7671C13.0868 12.39 12.6101 12 11.6667 12C11 12 10.4609 12.39 10 12.7672" stroke="#228596" stroke-width="2" stroke-linecap="round"/>
<path d="M26 2C26 2 25.2816 2.08878 24.4525 2.7671C23.9918 3.14401 23.5569 3.5 22.667 3.5C21.7771 3.5 21.3419 3.14401 20.8812 2.7671C20.4203 2.38996 19.9436 2 19.0002 2C18.0569 2 17.5801 2.38996 17.1192 2.7671C16.6585 3.14401 16.2234 3.5 15.3335 3.5C14.4436 3.5 14.0084 3.14401 13.5477 2.7671C13.0868 2.38996 12.6101 2 11.6667 2C11 2 10 2.7671 10 2.7671" stroke="#228596" stroke-width="2" stroke-linecap="round"/>
<path d="M2.5 1C2.5 0.447715 2.94772 0 3.5 0C4.05228 0 4.5 0.447715 4.5 1V7C4.5 7 3.89052 6.8 3.5 6.8C3.10948 6.8 2.5 7 2.5 7V1Z" fill="#FCAB2D"/>
</svg>
