<svg width="48" height="39" viewBox="0 0 48 39" fill="none" xmlns="http://www.w3.org/2000/svg">
<g clip-path="url(#clip0)">
<path d="M47 30.6455C47.0102 33.9312 44.8457 37.1352 40.185 38H13.815C11.696 37.8918 10.2646 37.1037 9.37003 36.0596C8.45968 34.9972 8.03486 33.5869 8.0968 32.1376C8.22148 29.2202 10.2735 26.4153 13.8343 26.2581L14.9689 26.208L14.7756 25.0888C14.5625 23.8552 15.1397 22.2276 16.3421 21.0284C17.5127 19.8607 19.1383 19.2359 20.9098 19.7622L21.563 19.9562L21.9826 19.4192C24.7504 15.8767 28.6424 14.6105 32.0518 15.1016C35.4681 15.5936 38.379 17.8351 39.3081 21.3637L39.4459 21.887L39.9593 22.0579C44.7166 23.6412 46.9896 27.2987 47 30.6455Z" stroke="#228596" stroke-width="2"/>
<g filter="url(#filter0_d)">
<path d="M35.2523 21.6632C30.6632 21.6632 28.1136 25.0343 28.1136 28.8019C28.1136 30.4768 29.1052 32.7137 30.1533 33.901" stroke="#228596" stroke-width="2" stroke-linecap="round"/>
</g>
<g filter="url(#filter1_d)">
<path d="M24.5441 32.8815C20.8364 34.4025 16.8959 31.8614 16.386 29.8218" stroke="#228596" stroke-width="2" stroke-linecap="round"/>
</g>
<path d="M1.75 1.75V39.25" stroke="#FF8C00" stroke-width="1.5" stroke-linecap="round" stroke-linejoin="round"/>
<path d="M1.75 10L6.643 6.738" stroke="#FF8C00" stroke-width="1.5" stroke-linecap="round" stroke-linejoin="round"/>
<path d="M1.75 11.5L6.644 14.762" stroke="#FF8C00" stroke-width="1.5" stroke-linecap="round" stroke-linejoin="round"/>
<path fill-rule="evenodd" clip-rule="evenodd" d="M24.25 10.75C24.25 13.2353 22.2353 15.25 19.75 15.25H7.75C6.92157 15.25 6.25 14.5784 6.25 13.75V7.75C6.25 6.92157 6.92157 6.25 7.75 6.25H19.75C22.2353 6.25 24.25 8.26472 24.25 10.75V10.75Z" stroke="#FF8C00" stroke-width="1.5" stroke-linecap="round" stroke-linejoin="round"/>
<path d="M10.75 6.25V15.25" stroke="#FF8C00" stroke-width="1.5" stroke-linecap="round" stroke-linejoin="round"/>
<path d="M15.25 6.25V15.25" stroke="#FF8C00" stroke-width="1.5" stroke-linecap="round" stroke-linejoin="round"/>
<path d="M19.75 6.25V15.25" stroke="#FF8C00" stroke-width="1.5" stroke-linecap="round" stroke-linejoin="round"/>
</g>
<defs>
<filter id="filter0_d" x="23.1136" y="20.6632" width="17.1387" height="22.2378" filterUnits="userSpaceOnUse" color-interpolation-filters="sRGB">
<feFlood flood-opacity="0" result="BackgroundImageFix"/>
<feColorMatrix in="SourceAlpha" type="matrix" values="0 0 0 0 0 0 0 0 0 0 0 0 0 0 0 0 0 0 127 0"/>
<feOffset dy="4"/>
<feGaussianBlur stdDeviation="2"/>
<feColorMatrix type="matrix" values="0 0 0 0 0 0 0 0 0 0 0 0 0 0 0 0 0 0 0.06 0"/>
<feBlend mode="normal" in2="BackgroundImageFix" result="effect1_dropShadow"/>
<feBlend mode="normal" in="SourceGraphic" in2="effect1_dropShadow" result="shape"/>
</filter>
<filter id="filter1_d" x="10.5684" y="26.3635" width="19.3795" height="18.5068" filterUnits="userSpaceOnUse" color-interpolation-filters="sRGB">
<feFlood flood-opacity="0" result="BackgroundImageFix"/>
<feColorMatrix in="SourceAlpha" type="matrix" values="0 0 0 0 0 0 0 0 0 0 0 0 0 0 0 0 0 0 127 0"/>
<feOffset dy="4"/>
<feGaussianBlur stdDeviation="2"/>
<feColorMatrix type="matrix" values="0 0 0 0 0 0 0 0 0 0 0 0 0 0 0 0 0 0 0.06 0"/>
<feBlend mode="normal" in2="BackgroundImageFix" result="effect1_dropShadow"/>
<feBlend mode="normal" in="SourceGraphic" in2="effect1_dropShadow" result="shape"/>
</filter>
<clipPath id="clip0">
<rect width="48" height="39" fill="white"/>
</clipPath>
</defs>
</svg>
